<svg width="597.9" height="99.8" viewBox="0 0 597.9 99.8" xmlns="http://www.w3.org/2000/svg"><g id="svgGroup" stroke-linecap="round" fill-rule="evenodd" font-size="9pt" stroke="#ffffff" stroke-width="0.25mm" fill="#ffffff" style="stroke:#ffffff;stroke-width:0.25mm;fill:#ffffff"><path d="M 192.1 69.9 L 194.7 66.1 Q 196.381 63.673 198.54 60.679 A 485.58 485.58 0 0 1 198.85 60.25 A 165.878 165.878 0 0 1 202.294 55.663 A 195.741 195.741 0 0 1 204 53.5 A 77.662 77.662 0 0 1 207.5 49.524 A 64.426 64.426 0 0 1 209.6 47.4 A 37.227 37.227 0 0 1 211.934 45.248 Q 213.184 44.195 214.401 43.39 A 21.948 21.948 0 0 1 214.85 43.1 A 11.221 11.221 0 0 1 216.217 42.361 Q 217.574 41.753 218.755 41.753 A 4.344 4.344 0 0 1 219.4 41.8 A 7.62 7.62 0 0 1 220.527 42.089 Q 221.825 42.538 222.4 43.4 A 4.698 4.698 0 0 1 223.114 45.238 A 6.299 6.299 0 0 1 223.2 46.3 A 2.92 2.92 0 0 1 223.107 46.984 Q 222.94 47.668 222.475 48.614 A 18.698 18.698 0 0 1 221.95 49.6 A 54.26 54.26 0 0 1 220.61 51.825 Q 219.828 53.06 218.9 54.4 A 583.86 583.86 0 0 1 216.256 58.188 A 523.272 523.272 0 0 1 215.4 59.4 A 111.476 111.476 0 0 0 214.6 60.544 Q 213.475 62.175 212.8 63.3 Q 212.1 64.5 210.65 66.75 Q 209.2 69 207.9 71.1 A 162.193 162.193 0 0 0 207.448 71.835 Q 206.578 73.258 206.319 73.762 A 4.53 4.53 0 0 0 206.3 73.8 Q 206.169 74.128 206.21 74.284 A 0.171 0.171 0 0 0 206.3 74.4 A 0.135 0.135 0 0 0 206.361 74.415 Q 206.528 74.415 206.802 74.04 A 3.885 3.885 0 0 0 206.9 73.9 Q 207.9 72.3 209.7 69.75 A 128.581 128.581 0 0 1 212.341 66.15 A 151.884 151.884 0 0 1 213.65 64.45 A 135.601 135.601 0 0 1 216.279 61.189 A 110.515 110.515 0 0 1 217.8 59.4 A 44.967 44.967 0 0 1 220.12 56.881 A 55.127 55.127 0 0 1 221.7 55.35 A 33.381 33.381 0 0 1 224.313 53.145 A 26.954 26.954 0 0 1 226.1 51.9 A 12.032 12.032 0 0 1 227.426 51.162 Q 228.831 50.5 230 50.5 Q 231.913 50.5 232.664 51.372 A 1.816 1.816 0 0 1 232.8 51.55 Q 233.5 52.6 233.5 54 Q 233.5 55.159 232.381 57.624 A 31.576 31.576 0 0 1 232.3 57.8 Q 231.1 60.4 229.1 63.9 Q 228.4 65.2 226.95 68 Q 225.5 70.8 223.95 74 A 387.225 387.225 0 0 0 222.851 76.288 Q 222.419 77.194 222.032 78.022 A 215.417 215.417 0 0 0 221.3 79.6 Q 220 82.3 218.65 85.6 A 108.329 108.329 0 0 0 217.099 89.608 A 90.414 90.414 0 0 0 216.3 91.9 Q 215.397 94.609 215.147 96.339 A 10.96 10.96 0 0 0 215.1 96.7 L 215.1 97 Q 215.1 97.7 215.9 97.7 A 0.144 0.144 0 0 0 215.905 97.74 Q 215.918 97.784 215.963 97.796 A 0.147 0.147 0 0 0 216 97.8 A 2.183 2.183 0 0 0 216.549 97.722 Q 217.06 97.589 217.714 97.226 A 9.764 9.764 0 0 0 218.1 97 Q 219.12 96.444 221.214 94.427 A 59.193 59.193 0 0 0 221.55 94.1 Q 223.9 91.8 226.6 88.9 Q 229.3 86 231.65 83.45 Q 233.912 80.996 234.924 79.792 A 30.199 30.199 0 0 0 235 79.7 L 239.7 74.2 A 130.964 130.964 0 0 1 240.556 73.174 Q 241.794 71.707 242.4 71.1 L 246.4 66.5 A 1.997 1.997 0 0 1 246.535 66.376 Q 246.674 66.261 246.788 66.221 A 0.341 0.341 0 0 1 246.9 66.2 A 0.63 0.63 0 0 1 247.177 66.257 Q 247.5 66.413 247.5 67 A 1.364 1.364 0 0 1 247.37 67.571 Q 247.284 67.758 247.142 67.946 A 2.544 2.544 0 0 1 247.1 68 Q 246 69.4 244.75 70.9 Q 243.5 72.4 242.4 73.7 Q 242.313 73.788 241.157 75.249 A 589.807 589.807 0 0 0 240.8 75.7 Q 239.336 77.554 237.111 80.265 A 558.35 558.35 0 0 1 237 80.4 Q 234.7 83.2 232.4 86.05 A 5624.48 5624.48 0 0 1 230.759 88.082 Q 229.463 89.688 228.4 91 A 620.449 620.449 0 0 0 227.812 91.728 Q 226.851 92.918 226.516 93.349 A 11.27 11.27 0 0 0 226.4 93.5 A 24.786 24.786 0 0 1 223.568 96.258 A 30.406 30.406 0 0 1 221.55 97.8 A 10.848 10.848 0 0 1 217.622 99.563 A 10.344 10.344 0 0 1 215.4 99.8 A 3.886 3.886 0 0 1 212.39 98.412 A 5.821 5.821 0 0 1 211.95 97.85 A 7.564 7.564 0 0 1 210.679 94.464 A 9.812 9.812 0 0 1 210.6 93.2 Q 210.6 92.5 210.75 91.8 Q 210.9 91.1 211 90.4 A 33.338 33.338 0 0 1 211.452 88.782 Q 211.673 88.057 211.947 87.249 A 70.958 70.958 0 0 1 212.55 85.55 A 82.968 82.968 0 0 1 213.938 82.043 A 103.112 103.112 0 0 1 215.05 79.5 A 182.442 182.442 0 0 1 217.225 74.869 A 161.632 161.632 0 0 1 217.95 73.4 A 79.879 79.879 0 0 1 219.19 71.016 Q 219.774 69.94 220.332 69.007 A 44.315 44.315 0 0 1 220.7 68.4 A 13.639 13.639 0 0 0 220.987 67.979 Q 221.423 67.317 222.13 66.136 A 119.651 119.651 0 0 0 222.3 65.85 Q 223.4 64 224.6 61.85 A 1718.034 1718.034 0 0 1 225.458 60.315 Q 225.798 59.708 226.108 59.154 A 963.363 963.363 0 0 1 226.7 58.1 A 33.382 33.382 0 0 0 227.401 56.791 Q 228.368 54.877 228.484 53.861 A 2.303 2.303 0 0 0 228.5 53.6 A 1.076 1.076 0 0 0 228.463 53.298 Q 228.152 52.245 225.254 54.592 A 29.446 29.446 0 0 0 225 54.8 A 57.97 57.97 0 0 0 223.034 56.619 Q 221.962 57.654 220.791 58.872 A 114.524 114.524 0 0 0 219.35 60.4 A 125.231 125.231 0 0 0 213.973 66.613 A 139.577 139.577 0 0 0 213.1 67.7 A 128.674 128.674 0 0 0 209.121 72.968 A 109.108 109.108 0 0 0 207.5 75.3 Q 207.032 76.143 206.169 76.986 A 10.807 10.807 0 0 1 206.05 77.1 A 3.194 3.194 0 0 1 204.502 77.899 A 4.682 4.682 0 0 1 203.5 78 A 2.548 2.548 0 0 1 202.985 77.944 Q 202.578 77.859 202.1 77.65 Q 201.3 77.3 201.3 75.8 A 6.049 6.049 0 0 1 201.456 74.5 Q 201.8 72.947 202.9 70.85 Q 204.5 67.8 206.85 64.2 Q 209.2 60.6 211.55 56.9 Q 213.9 53.2 215.4 50 Q 216.182 48.338 216.534 47.249 A 11.02 11.02 0 0 0 216.55 47.2 A 11.741 11.741 0 0 0 216.719 46.621 Q 216.858 46.093 216.89 45.717 A 2.528 2.528 0 0 0 216.9 45.5 A 1.452 1.452 0 0 0 216.881 45.254 Q 216.802 44.8 216.4 44.8 Q 215.2 44.8 212.3 47.4 A 53.888 53.888 0 0 0 210.474 49.128 Q 209.556 50.035 208.567 51.085 A 95.607 95.607 0 0 0 207.9 51.8 Q 205.4 54.5 202.9 57.65 Q 200.4 60.8 198 64.1 Q 195.6 67.5 193.5 70.6 Q 191.3 73.8 189.6 76.5 A 86.078 86.078 0 0 0 188.616 78.1 Q 187.621 79.76 187.003 80.995 A 20.594 20.594 0 0 0 187 81 Q 186.393 82.302 185.032 82.474 A 3.443 3.443 0 0 1 184.6 82.5 A 1.789 1.789 0 0 1 183.528 82.139 A 2.619 2.619 0 0 1 183.15 81.8 Q 182.56 81.165 182.671 80.034 A 4.284 4.284 0 0 1 182.7 79.8 A 121.486 121.486 0 0 0 184.94 75.354 Q 186.244 72.619 187.2 70.2 Q 188.9 65.9 190.45 61.7 A 71.611 71.611 0 0 1 192.134 57.565 Q 192.948 55.724 193.928 53.739 A 118.984 118.984 0 0 1 194.6 52.4 A 5.634 5.634 0 0 1 195.468 51.212 Q 195.919 50.73 196.521 50.264 A 12.93 12.93 0 0 1 197.55 49.55 A 13.023 13.023 0 0 1 198.708 48.898 Q 199.969 48.276 200.962 48.208 A 3.512 3.512 0 0 1 201.2 48.2 A 3.83 3.83 0 0 1 201.744 48.235 Q 202.8 48.388 202.8 49.2 Q 202.8 49.808 202.224 50.876 A 13.195 13.195 0 0 1 201.8 51.6 A 56.54 56.54 0 0 0 200.992 52.925 Q 200.101 54.425 198.963 56.502 A 191.239 191.239 0 0 0 198.8 56.8 Q 197 60.1 195.2 63.65 A 446.17 446.17 0 0 0 193.92 66.193 Q 193.417 67.203 192.961 68.13 A 255.06 255.06 0 0 0 192.1 69.9 Z M 86.9 79.7 L 94.3 71.1 Q 94.8 70.5 95.35 69.95 Q 95.9 69.4 96.4 68.8 Q 97.3 67.6 98.3 66.5 Q 98.501 66.3 98.701 66.233 A 0.629 0.629 0 0 1 98.9 66.2 Q 99.5 66.2 99.5 66.9 Q 99.5 67.223 99.175 67.741 A 5.287 5.287 0 0 1 99 68 Q 97.9 69.4 96.65 70.9 Q 95.4 72.4 94.3 73.7 Q 93.5 74.7 91.85 76.8 Q 90.2 78.9 88.3 81.3 Q 86.4 83.7 84.7 85.6 Q 82.7 87.8 80.2 90.2 Q 77.7 92.6 75.2 94.2 Q 73.533 95.267 72.088 95.623 A 5.807 5.807 0 0 1 70.7 95.8 A 8.459 8.459 0 0 1 69.286 95.691 Q 68.55 95.566 67.98 95.297 A 3.209 3.209 0 0 1 66.7 94.25 Q 65.886 93.103 65.674 91.216 A 12.732 12.732 0 0 1 65.6 89.8 Q 65.6 87.163 66.755 83.948 A 28.561 28.561 0 0 1 67.3 82.55 Q 69 78.5 71.3 74.55 A 271.427 271.427 0 0 1 73.236 71.276 Q 74.133 69.785 74.958 68.463 A 157.142 157.142 0 0 1 75.5 67.6 A 21.247 21.247 0 0 0 75.721 67.261 Q 76.134 66.614 76.9 65.35 A 381.213 381.213 0 0 1 77.833 63.82 Q 78.31 63.041 78.84 62.182 A 638.73 638.73 0 0 1 79.2 61.6 Q 80.5 59.5 81.6 57.65 Q 82.507 56.125 83.006 55.11 A 15.06 15.06 0 0 0 83.2 54.7 A 26.57 26.57 0 0 0 83.796 53.432 Q 84.6 51.585 84.6 50.6 A 1.568 1.568 0 0 0 84.576 50.311 Q 84.479 49.8 84 49.8 Q 82.51 49.8 77.86 53.848 A 78.245 78.245 0 0 0 77.8 53.9 Q 76.19 55.421 73.86 57.822 A 246.748 246.748 0 0 0 73.3 58.4 Q 70.6 61.2 67.65 64.55 Q 64.7 67.9 62.15 71.5 Q 59.6 75.1 58.1 78.4 A 7.409 7.409 0 0 1 57.71 79.14 Q 57.488 79.506 57.248 79.784 A 3.039 3.039 0 0 1 56.75 80.25 A 3.399 3.399 0 0 1 56.22 80.573 Q 55.897 80.729 55.584 80.778 A 1.84 1.84 0 0 1 55.3 80.8 A 2.171 2.171 0 0 1 54.597 80.696 Q 53.629 80.365 53.601 78.985 A 4.107 4.107 0 0 1 53.6 78.9 A 3.454 3.454 0 0 1 53.814 77.719 A 4.061 4.061 0 0 1 53.9 77.5 A 86.369 86.369 0 0 1 54.456 75.991 Q 55.375 73.563 56.8 70.15 Q 58.7 65.6 60.9 60.4 Q 63.1 55.2 65.25 50.4 A 2312.037 2312.037 0 0 1 66.771 47.011 Q 67.367 45.687 67.899 44.509 A 1111.584 1111.584 0 0 1 68.9 42.3 Q 66.8 42.9 65.1 43.3 A 17.264 17.264 0 0 1 63.785 43.559 Q 62.872 43.7 62.1 43.7 A 10.096 10.096 0 0 1 61.742 43.694 Q 61.245 43.677 61.016 43.605 A 0.835 0.835 0 0 1 61 43.6 A 6.906 6.906 0 0 1 60.64 43.492 Q 59.9 43.246 59.9 43 A 0.182 0.182 0 0 1 59.992 42.855 Q 60.227 42.687 61.065 42.612 A 10.501 10.501 0 0 1 61.2 42.6 A 10.521 10.521 0 0 0 62.396 42.526 Q 63.021 42.454 63.736 42.313 A 24.277 24.277 0 0 0 64.9 42.05 Q 67.1 41.5 69.7 40.6 A 205.974 205.974 0 0 1 71.215 37.366 Q 72.001 35.723 72.893 33.92 A 344.396 344.396 0 0 1 73.5 32.7 A 108.01 108.01 0 0 1 77.64 25.204 A 120.873 120.873 0 0 1 78.5 23.8 Q 81.3 19.3 84.6 15 A 49.208 49.208 0 0 1 91.255 7.869 A 45.534 45.534 0 0 1 91.8 7.4 Q 95.7 4.1 100.1 2.05 Q 104.5 0 109.4 0 A 6.593 6.593 0 0 1 111.178 0.228 A 4.828 4.828 0 0 1 113.5 1.65 A 5.409 5.409 0 0 1 114.671 3.784 Q 115 4.894 115 6.3 Q 115 8.926 113.417 11.815 A 17.734 17.734 0 0 1 113.2 12.2 A 26.872 26.872 0 0 1 110.803 15.735 A 35.623 35.623 0 0 1 108.3 18.55 A 65.559 65.559 0 0 1 104.074 22.468 A 80.354 80.354 0 0 1 101.2 24.8 Q 97.1 27.9 92.7 30.7 Q 88.3 33.5 83.7 35.9 A 121.795 121.795 0 0 1 78.683 38.379 A 96.305 96.305 0 0 1 75 40 Q 71.6 46.8 68.5 53.75 Q 65.4 60.7 62.9 67 A 17.005 17.005 0 0 1 63.319 66.432 Q 63.973 65.576 65.122 64.226 A 119.876 119.876 0 0 1 65.4 63.9 Q 67.2 61.8 69.4 59.4 A 165.401 165.401 0 0 1 71.249 57.415 Q 72.103 56.513 72.886 55.718 A 97.107 97.107 0 0 1 73.4 55.2 Q 75.4 53.3 77.95 51.25 A 38.799 38.799 0 0 1 80.787 49.166 A 30.654 30.654 0 0 1 82.95 47.85 A 13.885 13.885 0 0 1 84.534 47.096 Q 86.038 46.5 87.3 46.5 A 7.914 7.914 0 0 1 88.281 46.557 Q 89.354 46.691 89.966 47.146 A 2.076 2.076 0 0 1 90.15 47.3 A 2.635 2.635 0 0 1 90.931 48.751 A 3.872 3.872 0 0 1 91 49.5 Q 91 51.087 90.229 53.074 A 18.327 18.327 0 0 1 89.65 54.4 A 79.671 79.671 0 0 1 87.943 57.744 A 67.291 67.291 0 0 1 86.9 59.6 Q 86.2 60.9 84.45 63.6 Q 82.7 66.3 80.8 69.2 A 311.49 311.49 0 0 0 79.9 70.582 Q 78.625 72.55 77.8 73.9 Q 76.3 76.1 74.65 78.9 Q 73 81.7 71.75 84.25 Q 70.741 86.309 70.416 87.618 A 5.891 5.891 0 0 0 70.3 88.2 A 25.867 25.867 0 0 0 70.232 88.629 Q 70.181 88.969 70.15 89.25 Q 70.1 89.7 70.1 90.2 A 4.703 4.703 0 0 0 70.173 91.069 Q 70.446 92.513 71.74 92.595 A 2.524 2.524 0 0 0 71.9 92.6 A 4.281 4.281 0 0 0 73.363 92.336 A 5.076 5.076 0 0 0 73.7 92.2 A 3.52 3.52 0 0 0 74.291 91.953 Q 75.192 91.489 76.55 90.35 Q 78.4 88.8 80.4 86.75 A 205.67 205.67 0 0 0 83.288 83.732 A 183.304 183.304 0 0 0 84.2 82.75 Q 86 80.8 86.9 79.7 Z M 31.3 64.7 L 26.4 58.7 A 147.657 147.657 0 0 1 23.393 54.873 Q 21.94 52.956 20.724 51.2 A 78.856 78.856 0 0 1 19.35 49.15 A 18.001 18.001 0 0 1 17.354 45.065 A 14.363 14.363 0 0 1 16.6 40.5 A 13.506 13.506 0 0 1 17.008 37.269 A 16.956 16.956 0 0 1 17.55 35.5 A 18.789 18.789 0 0 1 18.574 33.218 Q 19.161 32.1 19.946 30.904 A 36.495 36.495 0 0 1 20.7 29.8 A 157.14 157.14 0 0 1 15.921 29.015 Q 13.324 28.545 11.05 28.029 A 85.233 85.233 0 0 1 9.05 27.55 Q 4.1 26.3 2.3 24.9 Q 1.1 24.2 0.55 23.6 A 5.094 5.094 0 0 1 0.336 23.352 Q 0.036 22.979 0.004 22.752 A 0.373 0.373 0 0 1 0 22.7 Q 0 22.3 0.5 22.3 A 2.312 2.312 0 0 1 1.088 22.386 Q 1.655 22.537 2.408 22.951 A 12.498 12.498 0 0 1 3 23.3 A 14.417 14.417 0 0 0 5.523 24.718 Q 6.778 25.276 8.29 25.723 A 32.341 32.341 0 0 0 10.8 26.35 Q 15.8 27.4 21.9 27.9 L 24.2 25.3 A 28.662 28.662 0 0 1 30.734 19.753 A 33.033 33.033 0 0 1 32 19 Q 36.6 16.4 41.75 14.75 A 69.837 69.837 0 0 1 50.648 12.514 A 63.543 63.543 0 0 1 51.9 12.3 A 68.106 68.106 0 0 1 56.604 11.707 A 49.601 49.601 0 0 1 61 11.5 A 19.252 19.252 0 0 1 64.211 11.782 A 24.658 24.658 0 0 1 66.55 12.3 Q 69.5 13.1 71.65 14.7 A 5.727 5.727 0 0 1 72.981 16.057 A 4.751 4.751 0 0 1 73.8 18.8 Q 73.8 19.172 73.714 19.63 A 6.465 6.465 0 0 1 73.7 19.7 A 5.693 5.693 0 0 1 73.406 20.685 A 6.24 6.24 0 0 1 73.4 20.7 A 8.743 8.743 0 0 1 70.761 24.46 Q 69.652 25.412 68.152 26.185 A 17.848 17.848 0 0 1 67.4 26.55 A 34.665 34.665 0 0 1 62.576 28.313 Q 60.163 29.009 57.396 29.49 A 60.333 60.333 0 0 1 56.1 29.7 A 96.1 96.1 0 0 1 45.315 30.783 A 113.989 113.989 0 0 1 40.1 30.9 Q 33.2 30.9 26.9 30.3 A 21.271 21.271 0 0 0 24.334 33.374 A 17.088 17.088 0 0 0 22.75 36.25 Q 21.4 39.4 21.4 42.7 Q 21.4 49.408 26.434 56.116 A 36.36 36.36 0 0 0 27.2 57.1 Q 30 60.4 32.9 63.4 Q 35.8 66.4 38.9 69.6 Q 42.1 72.7 43.6 75.75 Q 45.005 78.607 45.094 81.157 A 9.845 9.845 0 0 1 45.1 81.5 Q 45.1 85.7 41.65 88.35 Q 38.2 91 31.9 91 Q 30.7 91 29.4 90.9 A 40.508 40.508 0 0 1 27.394 90.694 A 45.744 45.744 0 0 1 26.7 90.6 Q 21.5 89.8 16.9 87.15 Q 12.3 84.5 8.7 80.5 A 34.214 34.214 0 0 1 3.549 73.041 A 31.804 31.804 0 0 1 3 71.9 A 1.838 1.838 0 0 1 2.906 71.772 Q 2.653 71.392 2.877 71.217 A 0.381 0.381 0 0 1 2.9 71.2 Q 3.166 71.023 3.353 71.395 A 1.345 1.345 0 0 1 3.4 71.5 A 14.916 14.916 0 0 0 4.526 73.282 A 18.876 18.876 0 0 0 5.5 74.5 A 38.785 38.785 0 0 0 7.571 76.703 A 45.057 45.057 0 0 0 8.4 77.5 A 32.823 32.823 0 0 0 13.287 81.145 A 27.725 27.725 0 0 0 16.35 82.75 A 21.308 21.308 0 0 0 22.553 84.42 A 26.701 26.701 0 0 0 25.7 84.6 A 36.931 36.931 0 0 0 29.439 84.424 Q 33.249 84.035 35.682 82.788 A 10.576 10.576 0 0 0 35.85 82.7 A 8.678 8.678 0 0 0 37.566 81.521 A 5.205 5.205 0 0 0 39.4 77.5 A 8.129 8.129 0 0 0 38.749 74.416 Q 37.827 72.161 35.6 69.7 A 57.556 57.556 0 0 1 34.105 68.06 Q 33.289 67.132 32.398 66.052 A 113.802 113.802 0 0 1 31.3 64.7 Z M 339.427 98.64 A 4.113 4.113 0 0 0 342.3 99.8 Q 345.6 99.8 348.15 98.35 Q 350.7 96.9 352.9 94.8 A 28.311 28.311 0 0 0 353.345 94.344 Q 354.443 93.196 356.05 91.3 Q 358 89 360.3 86.25 Q 362.6 83.5 364.8 80.85 Q 367 78.2 368.6 76.25 A 126.462 126.462 0 0 1 369.153 75.581 Q 370 74.563 370.49 74.027 A 10.346 10.346 0 0 1 370.8 73.7 Q 371.9 72.4 373.15 70.9 Q 374.4 69.4 375.5 68 A 2.544 2.544 0 0 0 375.542 67.946 Q 375.684 67.758 375.77 67.571 A 1.364 1.364 0 0 0 375.9 67 Q 375.9 66.413 375.577 66.257 A 0.63 0.63 0 0 0 375.3 66.2 A 0.341 0.341 0 0 0 375.188 66.221 Q 375.074 66.261 374.935 66.376 A 1.997 1.997 0 0 0 374.8 66.5 Q 372.8 68.7 370.8 71.1 A 163.019 163.019 0 0 0 369.122 73.039 A 199.164 199.164 0 0 0 366.2 76.55 Q 363.8 79.5 361.75 82.05 A 420.203 420.203 0 0 1 360.841 83.177 Q 359.442 84.905 358.6 85.9 Q 356.3 88.5 354.1 90.4 A 29.92 29.92 0 0 1 351.634 92.304 A 41.011 41.011 0 0 1 348.8 94.1 Q 347.472 94.764 346.453 94.987 A 4.478 4.478 0 0 1 345.5 95.1 Q 343.704 95.1 343.374 92.168 A 13.213 13.213 0 0 1 343.3 90.7 A 44.823 44.823 0 0 1 343.598 86.463 A 56.487 56.487 0 0 1 344.6 80.65 A 82.344 82.344 0 0 1 345.627 76.575 A 98.273 98.273 0 0 1 347.9 69.5 A 108.246 108.246 0 0 1 348.678 67.356 A 121.574 121.574 0 0 1 352.7 57.9 Q 355.5 52 358.8 46.3 A 87.61 87.61 0 0 0 362.067 44.852 A 104.32 104.32 0 0 0 367.7 42 Q 372.3 39.5 376.5 36.7 Q 380.7 33.9 384.4 30.7 A 53.196 53.196 0 0 0 387.77 27.619 Q 392.603 22.781 394.5 18 A 14.327 14.327 0 0 0 395.074 16.004 A 10.406 10.406 0 0 0 395.3 13.9 Q 395.3 13.4 395.25 12.9 Q 395.2 12.4 395.1 12 Q 394.6 9.4 393.2 8.3 A 4.969 4.969 0 0 0 391.54 7.441 A 6.043 6.043 0 0 0 389.8 7.2 Q 387.5 7.2 384.75 8.55 A 21.651 21.651 0 0 0 382.667 9.723 A 26.056 26.056 0 0 0 379.4 12.2 A 101.774 101.774 0 0 0 376.564 14.913 A 113.668 113.668 0 0 0 365.35 27.95 Q 358.8 36.8 353.4 46.7 Q 350 48 347 48.75 A 31.661 31.661 0 0 1 346.408 48.892 Q 345.139 49.184 343.982 49.335 A 18.355 18.355 0 0 1 341.6 49.5 L 340.85 49.5 A 2.713 2.713 0 0 1 340.523 49.48 A 3.473 3.473 0 0 1 340.1 49.4 Q 338.2 49.3 338.2 49.9 A 0.357 0.357 0 0 0 338.21 49.985 Q 338.278 50.264 338.794 50.517 A 3.903 3.903 0 0 0 339.1 50.65 Q 340 51 341.9 51 Q 346 51 352.3 48.9 Q 346.9 59.1 343.3 69.5 Q 339.7 79.9 338 89.3 A 21.973 21.973 0 0 0 337.906 89.799 A 19.594 19.594 0 0 0 337.6 93.2 Q 337.6 96.6 339 98.2 A 5.786 5.786 0 0 0 339.427 98.64 Z M 369.527 98.64 A 4.113 4.113 0 0 0 372.4 99.8 Q 375.7 99.8 378.25 98.35 Q 380.8 96.9 383 94.8 A 28.311 28.311 0 0 0 383.445 94.344 Q 384.543 93.196 386.15 91.3 Q 388.1 89 390.4 86.25 Q 392.7 83.5 394.9 80.85 Q 397.1 78.2 398.7 76.25 A 126.462 126.462 0 0 1 399.253 75.581 Q 400.1 74.563 400.59 74.027 A 10.346 10.346 0 0 1 400.9 73.7 Q 402 72.4 403.25 70.9 Q 404.5 69.4 405.6 68 A 2.544 2.544 0 0 0 405.642 67.946 Q 405.784 67.758 405.87 67.571 A 1.364 1.364 0 0 0 406 67 Q 406 66.413 405.677 66.257 A 0.63 0.63 0 0 0 405.4 66.2 A 0.341 0.341 0 0 0 405.288 66.221 Q 405.174 66.261 405.035 66.376 A 1.997 1.997 0 0 0 404.9 66.5 Q 402.9 68.7 400.9 71.1 A 163.019 163.019 0 0 0 399.222 73.039 A 199.164 199.164 0 0 0 396.3 76.55 Q 393.9 79.5 391.85 82.05 A 420.203 420.203 0 0 1 390.941 83.177 Q 389.542 84.905 388.7 85.9 Q 386.4 88.5 384.2 90.4 A 29.92 29.92 0 0 1 381.734 92.304 A 41.011 41.011 0 0 1 378.9 94.1 Q 377.572 94.764 376.553 94.987 A 4.478 4.478 0 0 1 375.6 95.1 Q 373.804 95.1 373.474 92.168 A 13.213 13.213 0 0 1 373.4 90.7 A 44.823 44.823 0 0 1 373.698 86.463 A 56.487 56.487 0 0 1 374.7 80.65 A 82.344 82.344 0 0 1 375.727 76.575 A 98.273 98.273 0 0 1 378 69.5 A 108.246 108.246 0 0 1 378.778 67.356 A 121.574 121.574 0 0 1 382.8 57.9 Q 385.6 52 388.9 46.3 A 87.61 87.61 0 0 0 392.167 44.852 A 104.32 104.32 0 0 0 397.8 42 Q 402.4 39.5 406.6 36.7 Q 410.8 33.9 414.5 30.7 A 53.196 53.196 0 0 0 417.87 27.619 Q 422.703 22.781 424.6 18 A 14.327 14.327 0 0 0 425.174 16.004 A 10.406 10.406 0 0 0 425.4 13.9 Q 425.4 13.4 425.35 12.9 Q 425.3 12.4 425.2 12 Q 424.7 9.4 423.3 8.3 A 4.969 4.969 0 0 0 421.64 7.441 A 6.043 6.043 0 0 0 419.9 7.2 Q 417.6 7.2 414.85 8.55 A 21.651 21.651 0 0 0 412.767 9.723 A 26.056 26.056 0 0 0 409.5 12.2 A 101.774 101.774 0 0 0 406.664 14.913 A 113.668 113.668 0 0 0 395.45 27.95 Q 388.9 36.8 383.5 46.7 Q 380.1 48 377.1 48.75 A 31.661 31.661 0 0 1 376.508 48.892 Q 375.239 49.184 374.082 49.335 A 18.355 18.355 0 0 1 371.7 49.5 L 370.95 49.5 A 2.713 2.713 0 0 1 370.623 49.48 A 3.473 3.473 0 0 1 370.2 49.4 Q 368.3 49.3 368.3 49.9 A 0.357 0.357 0 0 0 368.31 49.985 Q 368.378 50.264 368.894 50.517 A 3.903 3.903 0 0 0 369.2 50.65 Q 370.1 51 372 51 Q 376.1 51 382.4 48.9 Q 377 59.1 373.4 69.5 Q 369.8 79.9 368.1 89.3 A 21.973 21.973 0 0 0 368.006 89.799 A 19.594 19.594 0 0 0 367.7 93.2 Q 367.7 96.6 369.1 98.2 A 5.786 5.786 0 0 0 369.527 98.64 Z M 482 45.9 L 468.2 45.9 Q 467.572 45.9 467.302 45.737 A 0.377 0.377 0 0 1 467.1 45.4 A 0.878 0.878 0 0 1 467.642 44.58 Q 468.192 44.3 469.3 44.3 L 482.9 44.3 A 116.466 116.466 0 0 1 487.428 36.808 A 105.793 105.793 0 0 1 488.1 35.8 Q 490.8 31.8 494.1 28.3 A 19.283 19.283 0 0 1 495.138 27.167 Q 496.253 26.05 497.25 25.5 Q 498.7 24.7 500.25 24.35 Q 501.8 24 503.7 23.6 Q 499.1 29.2 495.65 34.15 Q 492.2 39.1 489.2 44.3 L 504 44.3 Q 505.2 44.3 505.2 44.9 Q 505.2 45.144 504.838 45.42 A 2.698 2.698 0 0 1 504.65 45.55 A 1.849 1.849 0 0 1 504.195 45.753 Q 503.753 45.888 503.117 45.899 A 6.64 6.64 0 0 1 503 45.9 L 488.3 45.9 A 127.732 127.732 0 0 0 484.253 53.595 A 140.147 140.147 0 0 0 483.7 54.75 Q 481.5 59.4 479 64.9 Q 476.9 69.5 475.25 74.75 Q 473.6 80 472.6 84.4 Q 471.604 88.782 471.6 90.685 A 7.252 7.252 0 0 0 471.6 90.7 Q 471.6 95.3 474.1 95.3 A 3.153 3.153 0 0 0 474.952 95.171 Q 475.755 94.945 476.755 94.323 A 12.987 12.987 0 0 0 477.1 94.1 A 67.745 67.745 0 0 0 481.663 91.042 A 55.582 55.582 0 0 0 484.1 89.15 Q 487.2 86.6 490 83.8 Q 491.031 82.838 492.323 81.497 A 108.405 108.405 0 0 0 493.55 80.2 Q 495.6 78 497.7 75.7 Q 499.8 73.4 501.4 71.6 L 503.1 69.7 A 1.997 1.997 0 0 1 503.235 69.576 Q 503.374 69.461 503.488 69.421 A 0.341 0.341 0 0 1 503.6 69.4 A 0.63 0.63 0 0 1 503.877 69.457 Q 504.2 69.613 504.2 70.2 A 1.364 1.364 0 0 1 504.07 70.771 Q 503.984 70.958 503.842 71.146 A 2.544 2.544 0 0 1 503.8 71.2 Q 503.3 72 502.7 72.7 Q 502 73.4 501.4 74.2 Q 497.1 79.5 491.9 84.9 A 123.048 123.048 0 0 1 481.243 94.765 A 115.803 115.803 0 0 1 481.2 94.8 Q 478.9 96.6 476.4 98.2 A 10.169 10.169 0 0 1 471.822 99.743 A 12.744 12.744 0 0 1 470.6 99.8 A 4.113 4.113 0 0 1 467.727 98.64 A 5.786 5.786 0 0 1 467.3 98.2 Q 465.9 96.6 465.9 93.2 Q 465.9 91.3 466.3 89.3 Q 466.463 88.483 466.894 86.399 A 2153.365 2153.365 0 0 1 467.1 85.4 Q 467.7 82.5 468.5 79.5 A 81.794 81.794 0 0 1 469.422 76.062 Q 469.93 74.307 470.564 72.365 A 145.373 145.373 0 0 1 471 71.05 A 117.739 117.739 0 0 1 473.21 65.057 A 145.581 145.581 0 0 1 474.9 61 A 131.927 131.927 0 0 1 477.451 55.101 A 114.084 114.084 0 0 1 478.4 53.1 Q 480.2 49.4 482 45.9 Z M 577.6 50.2 L 573.9 54.8 Q 571 58.4 568.05 62.45 Q 565.1 66.5 562.75 70 Q 560.813 72.885 559.725 74.819 A 29.857 29.857 0 0 0 559.3 75.6 Q 558.817 76.46 558.247 76.857 A 1.796 1.796 0 0 1 557.2 77.2 Q 556.5 77.2 555.9 76.5 A 2.443 2.443 0 0 1 555.359 75.349 A 3.431 3.431 0 0 1 555.3 74.7 A 3.966 3.966 0 0 1 555.358 74.05 Q 555.411 73.731 555.513 73.38 A 7.57 7.57 0 0 1 555.6 73.1 A 172.876 172.876 0 0 0 560.653 62.544 A 196.322 196.322 0 0 0 562.25 58.8 Q 565.4 51.2 568.5 45 Q 569.347 43.401 571.254 42.201 A 11.596 11.596 0 0 1 571.5 42.05 A 11.855 11.855 0 0 1 572.764 41.391 Q 573.432 41.096 574.041 40.948 A 4.921 4.921 0 0 1 575.2 40.8 A 3.014 3.014 0 0 1 575.738 40.844 Q 576.665 41.013 576.699 41.837 A 1.545 1.545 0 0 1 576.7 41.9 A 1.464 1.464 0 0 1 576.651 42.239 Q 576.518 42.785 576.018 43.779 A 22.817 22.817 0 0 1 575.8 44.2 A 80.963 80.963 0 0 0 575.219 45.113 Q 574.3 46.575 573.1 48.6 A 328.188 328.188 0 0 0 570.644 52.819 A 377.418 377.418 0 0 0 569.8 54.3 Q 568.1 57.3 566.65 60 A 82.288 82.288 0 0 0 565.817 61.59 Q 565.037 63.123 564.566 64.243 A 22.605 22.605 0 0 0 564.5 64.4 Q 565.342 63.252 566.683 61.224 A 205.103 205.103 0 0 0 567.55 59.9 Q 568.891 57.838 570.917 55.303 A 103.133 103.133 0 0 1 572.9 52.9 L 576.1 49.1 A 34.411 34.411 0 0 1 578.051 46.96 Q 580.074 44.932 581.877 43.965 A 9.905 9.905 0 0 1 582 43.9 Q 584.212 42.753 586.156 42.546 A 7.959 7.959 0 0 1 587 42.5 Q 588.8 42.5 590.1 43.4 A 2.8 2.8 0 0 1 591.16 44.85 Q 591.325 45.335 591.377 45.933 A 6.612 6.612 0 0 1 591.4 46.5 A 12.782 12.782 0 0 1 590.465 51.252 A 14.738 14.738 0 0 1 590.3 51.65 Q 589.458 53.603 588.85 54.939 A 84.379 84.379 0 0 1 588.5 55.7 Q 587.964 56.925 587.077 58.854 A 418.857 418.857 0 0 1 586.5 60.1 Q 585.2 62.9 583.9 66.1 A 95.223 95.223 0 0 0 582.564 69.574 A 74.77 74.77 0 0 0 581.7 72.1 Q 580.965 74.388 580.83 75.807 A 6.306 6.306 0 0 0 580.8 76.4 Q 580.8 77.269 581.158 77.557 A 0.683 0.683 0 0 0 581.6 77.7 A 2.629 2.629 0 0 0 582.284 77.599 Q 582.928 77.424 583.759 76.948 A 12.468 12.468 0 0 0 584.25 76.65 A 39.738 39.738 0 0 0 587.112 74.641 A 44.288 44.288 0 0 0 587.55 74.3 Q 588.91 73.229 589.761 72.497 A 28.111 28.111 0 0 0 590.1 72.2 A 68.046 68.046 0 0 0 593.844 68.509 A 86.894 86.894 0 0 0 596.8 65.2 Q 597.265 64.643 597.557 64.603 A 0.324 0.324 0 0 1 597.6 64.6 Q 597.866 64.6 597.896 65.073 A 2.02 2.02 0 0 1 597.9 65.2 A 0.989 0.989 0 0 1 597.876 65.407 Q 597.832 65.612 597.708 65.879 A 4.222 4.222 0 0 1 597.65 66 L 597.1 67.1 A 14.352 14.352 0 0 1 596.669 67.77 Q 596.184 68.486 595.448 69.434 A 55.94 55.94 0 0 1 595.2 69.75 Q 593.9 71.4 592.5 72.9 A 44.872 44.872 0 0 1 588.167 77.037 A 49.241 49.241 0 0 1 587.85 77.3 A 35.883 35.883 0 0 1 582.967 80.669 A 40.024 40.024 0 0 1 582.2 81.1 Q 581.4 81.5 580.75 81.75 A 15.791 15.791 0 0 1 580.368 81.892 Q 579.975 82.032 579.7 82.1 Q 579.3 82.2 578.9 82.25 Q 578.5 82.3 578.1 82.3 Q 576.4 82.3 575.7 81 Q 575 79.7 575 77.9 A 14.234 14.234 0 0 1 575.323 74.984 Q 575.611 73.61 576.156 72.103 A 28.746 28.746 0 0 1 576.75 70.6 Q 578.5 66.5 580.8 62.2 Q 583.1 57.9 584.85 54.05 Q 585.989 51.544 586.387 49.526 A 10.512 10.512 0 0 0 586.6 47.5 Q 586.6 46.55 586.36 45.867 A 2.942 2.942 0 0 0 586.15 45.4 Q 585.732 44.656 584.924 44.604 A 1.924 1.924 0 0 0 584.8 44.6 A 2.862 2.862 0 0 0 583.916 44.754 Q 583.142 45.006 582.21 45.671 A 11.629 11.629 0 0 0 581.9 45.9 Q 580 47.2 577.6 50.2 Z M 170.503 82.255 A 4.332 4.332 0 0 0 172.3 82.6 Q 173.8 82.6 175.75 81.6 Q 177.7 80.6 179.9 78.5 Q 181.1 77.4 182.25 76.15 Q 183.4 74.9 184.5 73.6 Q 185.7 72.3 186.8 71 Q 187.9 69.7 189 68.3 A 1.636 1.636 0 0 0 189.136 68.147 A 1.191 1.191 0 0 0 189.4 67.4 A 2.078 2.078 0 0 0 189.383 67.12 Q 189.298 66.5 188.8 66.5 A 0.341 0.341 0 0 0 188.688 66.521 Q 188.574 66.561 188.435 66.676 A 1.997 1.997 0 0 0 188.3 66.8 Q 187.5 67.9 186.6 68.9 Q 185.7 69.9 184.6 71 Q 182.6 73.3 180.4 75.35 Q 178.2 77.4 176 78.5 Q 174.6 79.3 173.9 79.3 A 1.401 1.401 0 0 1 173.777 79.295 Q 172.9 79.218 172.9 78 Q 172.9 76.5 174.3 73.4 Q 175 71.8 176.45 68.9 Q 177.9 66 179.55 62.8 A 825.514 825.514 0 0 1 179.656 62.595 Q 181.244 59.518 182.55 57.05 Q 183.9 54.5 184.3 53.6 Q 184.621 52.878 184.17 52.446 A 1.329 1.329 0 0 0 183.9 52.25 A 2.979 2.979 0 0 0 183.623 52.113 Q 183.226 51.941 182.744 51.864 A 5.322 5.322 0 0 0 181.9 51.8 A 6.932 6.932 0 0 0 181.892 51.8 A 5.967 5.967 0 0 0 180 52.1 A 3.824 3.824 0 0 0 179.821 52.165 Q 179.51 52.286 179.266 52.447 A 1.985 1.985 0 0 0 178.7 53 Q 178 54 176.9 55.7 Q 175.6 57.2 173.3 59.9 A 129.983 129.983 0 0 1 172.72 60.576 A 143.323 143.323 0 0 1 168.4 65.35 Q 166.856 66.983 165.454 68.246 A 32.36 32.36 0 0 1 163.6 69.8 A 32.484 32.484 0 0 1 163.394 69.961 Q 161.11 71.731 159.616 72.217 A 3.325 3.325 0 0 1 158.6 72.4 A 2.098 2.098 0 0 1 158.364 72.387 Q 157.38 72.276 157.162 71.194 A 3.531 3.531 0 0 1 157.1 70.5 A 4.952 4.952 0 0 1 157.169 69.723 Q 157.4 68.285 158.4 65.9 A 33.053 33.053 0 0 1 158.964 64.611 Q 159.634 63.163 160.521 61.581 A 63.505 63.505 0 0 1 162.5 58.3 Q 165.2 54.1 168.7 50.6 A 53.385 53.385 0 0 1 170.745 48.597 A 44.301 44.301 0 0 1 175 45.1 Q 176.9 43.735 178.589 43.18 A 7.08 7.08 0 0 1 180.8 42.8 A 3.944 3.944 0 0 1 182.785 43.298 Q 183.608 43.766 184.223 44.673 A 7.451 7.451 0 0 1 185 46.2 A 3.296 3.296 0 0 0 185.094 46.449 Q 185.499 47.4 186.3 47.4 A 1.697 1.697 0 0 0 186.594 47.376 Q 187.281 47.255 187.447 46.526 A 2.378 2.378 0 0 0 187.5 46 Q 187.5 45.016 186.758 44.13 A 5.314 5.314 0 0 0 186 43.4 A 15.276 15.276 0 0 0 184.338 42.25 A 11.455 11.455 0 0 0 182.2 41.25 Q 180.3 40.6 178.3 40.6 Q 175.925 40.6 173.394 41.596 A 20.32 20.32 0 0 0 170.3 43.15 A 35.066 35.066 0 0 0 167.977 44.691 A 39.834 39.834 0 0 0 162.4 49.6 A 59.069 59.069 0 0 0 160.512 51.686 A 50.46 50.46 0 0 0 156.1 57.6 A 30.489 30.489 0 0 0 154.845 59.922 A 38.719 38.719 0 0 0 153.4 63.3 A 24.047 24.047 0 0 0 153.255 63.698 Q 152.2 66.669 152.2 69.2 A 7.548 7.548 0 0 0 152.239 69.971 A 5.783 5.783 0 0 0 153.5 73.1 A 3.919 3.919 0 0 0 154.811 74.132 Q 155.461 74.457 156.299 74.625 A 9.727 9.727 0 0 0 157.9 74.8 A 9.911 9.911 0 0 0 160.809 74.369 A 11.156 11.156 0 0 0 164.1 72.7 A 25.722 25.722 0 0 0 166.248 70.958 A 30.904 30.904 0 0 0 169.55 67.45 Q 172.1 64.3 174.2 61.1 A 10.208 10.208 0 0 1 174.079 61.475 Q 173.856 62.125 173.469 63.022 A 43.303 43.303 0 0 1 173.1 63.85 Q 172.3 65.6 171.4 67.55 Q 170.5 69.5 169.8 71.1 A 61.685 61.685 0 0 0 169.789 71.126 Q 169.098 72.706 168.9 73.4 A 21.466 21.466 0 0 0 168.826 73.678 Q 168.577 74.644 168.445 75.532 A 12.792 12.792 0 0 0 168.3 77.4 Q 168.3 81.26 170.503 82.255 Z M 117.533 91.038 A 7.064 7.064 0 0 0 119.1 91.2 Q 121.2 91.2 123.15 90.5 Q 125.1 89.8 126.8 88.7 Q 129.116 87.097 131.519 84.718 A 56.075 56.075 0 0 0 134.85 81.1 Q 139 76.2 142.5 70 Q 145.9 63.9 148.15 57.15 A 47.431 47.431 0 0 0 149.135 53.796 A 39.808 39.808 0 0 0 150.4 44 Q 150.4 41 148.9 38.45 Q 148.045 36.996 147.124 36.371 A 2.507 2.507 0 0 0 145.7 35.9 A 1.741 1.741 0 0 0 145.169 35.985 A 2.227 2.227 0 0 0 144.7 36.2 Q 145.2 37.9 145.3 39.75 A 56.886 56.886 0 0 1 145.302 39.779 Q 145.351 40.699 145.375 41.729 A 91.094 91.094 0 0 1 145.4 43.9 A 24.88 24.88 0 0 1 145.359 45.313 Q 145.268 46.91 144.977 48.699 A 47.177 47.177 0 0 1 144.2 52.45 A 67.003 67.003 0 0 1 143.269 55.826 A 79.658 79.658 0 0 1 140.9 62.5 Q 138.8 67.7 136.2 72.5 A 89.489 89.489 0 0 1 134.063 76.235 A 71.282 71.282 0 0 1 130.85 81.1 A 45.191 45.191 0 0 1 129.47 82.914 Q 128.473 84.154 127.51 85.147 A 20.647 20.647 0 0 1 125.6 86.9 Q 123.953 88.16 122.353 88.809 A 8.873 8.873 0 0 1 119 89.5 A 1.241 1.241 0 0 1 118.269 89.291 Q 117.782 88.949 117.649 88.048 A 5.174 5.174 0 0 1 117.6 87.3 A 8.442 8.442 0 0 1 117.6 87.278 Q 117.605 85.283 118.55 82.25 A 50.844 50.844 0 0 1 119.376 79.822 A 62.658 62.658 0 0 1 121 75.85 Q 121.756 74.162 122.486 72.665 A 77.519 77.519 0 0 1 123.9 69.9 A 98.072 98.072 0 0 1 124.636 68.587 Q 125.029 67.898 125.47 67.146 A 178.726 178.726 0 0 1 126.6 65.25 Q 128.2 62.6 129.95 60 A 334.296 334.296 0 0 1 130.063 59.833 Q 131.747 57.334 133.15 55.35 A 53.272 53.272 0 0 1 133.824 54.417 Q 134.474 53.539 134.959 52.978 A 9.126 9.126 0 0 1 135.4 52.5 Q 135.977 51.924 136.184 51.429 A 1.369 1.369 0 0 0 136.3 50.9 A 1.402 1.402 0 0 0 136.295 50.782 Q 136.262 50.392 136.006 50.139 A 1.243 1.243 0 0 0 135.65 49.9 A 2.707 2.707 0 0 0 135.322 49.775 Q 134.763 49.6 134 49.6 A 6.485 6.485 0 0 0 133.018 49.677 A 7.996 7.996 0 0 0 131.7 50 Q 130.5 50.4 129.6 51.3 A 36.15 36.15 0 0 0 129.009 51.928 Q 126.5 54.654 123.95 58.5 Q 121.1 62.8 118.8 67.6 A 77.495 77.495 0 0 0 117.202 71.158 A 64.507 64.507 0 0 0 115.1 76.9 A 39.947 39.947 0 0 0 114.587 78.691 Q 114.153 80.357 113.931 81.856 A 20.178 20.178 0 0 0 113.7 84.8 A 12.043 12.043 0 0 0 113.719 85.486 Q 113.776 86.489 114.005 87.34 A 6.195 6.195 0 0 0 115 89.45 A 3.984 3.984 0 0 0 115.78 90.244 Q 116.515 90.806 117.533 91.038 Z M 311.8 68.3 L 307.4 73.5 Q 305.3 76 302 78.75 Q 298.7 81.5 294.9 83.35 A 19.259 19.259 0 0 1 291.179 84.731 A 15.02 15.02 0 0 1 287.5 85.2 A 11.164 11.164 0 0 1 285.279 84.995 Q 282.694 84.469 281.4 82.6 Q 279.699 80.142 279.605 76.434 A 17.277 17.277 0 0 1 279.6 76 A 26.164 26.164 0 0 1 279.812 72.764 A 35.204 35.204 0 0 1 280.35 69.65 Q 281.1 66.2 282.25 63 A 67.476 67.476 0 0 1 283.106 60.741 Q 283.813 58.975 284.5 57.6 A 71.217 71.217 0 0 1 287.628 51.892 A 83.991 83.991 0 0 1 289.3 49.25 Q 292.1 45 295.3 41.5 A 35.649 35.649 0 0 1 298.927 38.033 A 28.273 28.273 0 0 1 301.95 35.85 A 15.797 15.797 0 0 1 304.728 34.458 Q 306.741 33.7 308.7 33.7 A 6.489 6.489 0 0 1 310.485 33.932 A 4.603 4.603 0 0 1 313.05 35.75 A 7.922 7.922 0 0 1 314.491 40.077 A 9.778 9.778 0 0 1 314.5 40.5 Q 314.5 43.4 312.9 45.7 A 42.696 42.696 0 0 1 311.726 47.332 Q 309.319 50.5 308.1 50.5 Q 307.6 50.5 307.6 49.8 A 2.237 2.237 0 0 1 307.638 49.427 Q 307.752 48.773 308.203 47.529 A 35.1 35.1 0 0 1 308.4 47 Q 308.706 46.311 309.13 45.124 A 66.732 66.732 0 0 0 309.4 44.35 Q 310 42.6 310.45 40.75 A 14.405 14.405 0 0 0 310.702 39.484 Q 310.864 38.399 310.8 37.5 A 1.487 1.487 0 0 0 310.596 37.45 Q 310.383 37.411 310.081 37.403 A 6.387 6.387 0 0 0 309.9 37.4 A 6.107 6.107 0 0 0 307.925 37.749 Q 306.69 38.171 305.35 39.1 Q 302.9 40.8 300.4 43.5 Q 297.9 46.2 295.8 49.15 Q 293.84 51.904 292.489 54.266 A 43.091 43.091 0 0 0 292.3 54.6 Q 291.458 56.132 290.498 58.161 A 104.193 104.193 0 0 0 289.9 59.45 A 82.195 82.195 0 0 0 287.74 64.667 A 91.075 91.075 0 0 0 287.45 65.45 A 58.936 58.936 0 0 0 286.493 68.283 Q 286.019 69.819 285.7 71.2 Q 285.3 72.6 285.1 74 A 19.632 19.632 0 0 0 284.91 76.127 A 17.338 17.338 0 0 0 284.9 76.7 Q 284.9 78.9 285.75 80.4 Q 286.6 81.9 288.7 81.9 Q 292.2 81.9 295.55 80.3 Q 298.9 78.7 301.9 76.2 A 69.625 69.625 0 0 0 306.445 72.072 A 61.868 61.868 0 0 0 307.4 71.1 Q 309.5 69 311.1 66.8 A 1.997 1.997 0 0 1 311.235 66.676 Q 311.374 66.561 311.488 66.521 A 0.341 0.341 0 0 1 311.6 66.5 Q 312.098 66.5 312.183 67.12 A 2.078 2.078 0 0 1 312.2 67.4 A 1.191 1.191 0 0 1 311.936 68.147 A 1.636 1.636 0 0 1 311.8 68.3 Z M 471.7 68.3 L 467.3 73.5 Q 465.2 76 461.9 78.75 Q 458.6 81.5 454.8 83.35 A 19.259 19.259 0 0 1 451.079 84.731 A 15.02 15.02 0 0 1 447.4 85.2 A 11.164 11.164 0 0 1 445.179 84.995 Q 442.594 84.469 441.3 82.6 Q 439.599 80.142 439.505 76.434 A 17.277 17.277 0 0 1 439.5 76 A 26.164 26.164 0 0 1 439.712 72.764 A 35.204 35.204 0 0 1 440.25 69.65 Q 441 66.2 442.15 63 A 67.476 67.476 0 0 1 443.006 60.741 Q 443.713 58.975 444.4 57.6 A 71.217 71.217 0 0 1 447.528 51.892 A 83.991 83.991 0 0 1 449.2 49.25 Q 452 45 455.2 41.5 A 35.649 35.649 0 0 1 458.827 38.033 A 28.273 28.273 0 0 1 461.85 35.85 A 15.797 15.797 0 0 1 464.628 34.458 Q 466.641 33.7 468.6 33.7 A 6.489 6.489 0 0 1 470.385 33.932 A 4.603 4.603 0 0 1 472.95 35.75 A 7.922 7.922 0 0 1 474.391 40.077 A 9.778 9.778 0 0 1 474.4 40.5 Q 474.4 43.4 472.8 45.7 A 42.696 42.696 0 0 1 471.626 47.332 Q 469.219 50.5 468 50.5 Q 467.5 50.5 467.5 49.8 A 2.237 2.237 0 0 1 467.538 49.427 Q 467.652 48.773 468.103 47.529 A 35.1 35.1 0 0 1 468.3 47 Q 468.606 46.311 469.03 45.124 A 66.732 66.732 0 0 0 469.3 44.35 Q 469.9 42.6 470.35 40.75 A 14.405 14.405 0 0 0 470.602 39.484 Q 470.764 38.399 470.7 37.5 A 1.487 1.487 0 0 0 470.496 37.45 Q 470.283 37.411 469.981 37.403 A 6.387 6.387 0 0 0 469.8 37.4 A 6.107 6.107 0 0 0 467.825 37.749 Q 466.59 38.171 465.25 39.1 Q 462.8 40.8 460.3 43.5 Q 457.8 46.2 455.7 49.15 Q 453.74 51.904 452.389 54.266 A 43.091 43.091 0 0 0 452.2 54.6 Q 451.358 56.132 450.398 58.161 A 104.193 104.193 0 0 0 449.8 59.45 A 82.195 82.195 0 0 0 447.64 64.667 A 91.075 91.075 0 0 0 447.35 65.45 A 58.936 58.936 0 0 0 446.393 68.283 Q 445.919 69.819 445.6 71.2 Q 445.2 72.6 445 74 A 19.632 19.632 0 0 0 444.81 76.127 A 17.338 17.338 0 0 0 444.8 76.7 Q 444.8 78.9 445.65 80.4 Q 446.5 81.9 448.6 81.9 Q 452.1 81.9 455.45 80.3 Q 458.8 78.7 461.8 76.2 A 69.625 69.625 0 0 0 466.345 72.072 A 61.868 61.868 0 0 0 467.3 71.1 Q 469.4 69 471 66.8 A 1.997 1.997 0 0 1 471.135 66.676 Q 471.274 66.561 471.388 66.521 A 0.341 0.341 0 0 1 471.5 66.5 Q 471.998 66.5 472.083 67.12 A 2.078 2.078 0 0 1 472.1 67.4 A 1.191 1.191 0 0 1 471.836 68.147 A 1.636 1.636 0 0 1 471.7 68.3 Z M 430 79.7 L 437.4 71.1 L 441.4 66.5 A 1.997 1.997 0 0 1 441.535 66.376 Q 441.674 66.261 441.788 66.221 A 0.341 0.341 0 0 1 441.9 66.2 A 0.63 0.63 0 0 1 442.177 66.257 Q 442.5 66.413 442.5 67 Q 442.5 67.278 442.071 67.9 A 7.834 7.834 0 0 1 442 68 Q 441 69.4 439.75 70.9 Q 438.5 72.4 437.4 73.7 A 105.436 105.436 0 0 0 436.659 74.557 Q 435.488 75.925 433.95 77.8 Q 431.9 80.3 429.65 83 Q 427.4 85.7 425.3 87.7 Q 421.5 91.4 417.15 94 Q 412.8 96.6 408 96.6 A 7.661 7.661 0 0 1 405.228 96.12 Q 403.379 95.408 402.132 93.642 A 8.662 8.662 0 0 1 402 93.45 Q 400.458 91.137 400.048 87.394 A 26.653 26.653 0 0 1 399.9 84.5 Q 399.9 83.5 399.95 82.5 A 49.831 49.831 0 0 1 400.051 80.978 A 57.666 57.666 0 0 1 400.1 80.4 Q 400.7 75.5 403.15 69.7 Q 405.256 64.716 409.318 59.141 A 81.725 81.725 0 0 1 410.7 57.3 A 28.764 28.764 0 0 1 413.991 53.685 A 21.183 21.183 0 0 1 418.1 50.7 Q 422.1 48.5 425.8 48.5 Q 428.4 48.5 430.4 49.5 A 4.365 4.365 0 0 1 432.631 52.542 A 7.58 7.58 0 0 1 432.8 54.2 Q 432.8 56.173 431.679 58.488 A 17.433 17.433 0 0 1 431 59.75 Q 429.2 62.8 424.9 65.6 A 72.771 72.771 0 0 1 421.523 67.616 Q 418.321 69.403 415.866 70.247 A 19.594 19.594 0 0 1 415.4 70.4 A 43.012 43.012 0 0 1 413.198 71.036 Q 411.134 71.568 409.644 71.68 A 11.029 11.029 0 0 1 409.3 71.7 Q 408.578 72.693 407.857 74.702 A 28.504 28.504 0 0 0 407.7 75.15 Q 406.9 77.5 406.35 80.05 Q 405.8 82.6 405.6 84.6 A 7.195 7.195 0 0 1 405.581 85.12 A 8.664 8.664 0 0 1 405.55 85.45 Q 405.5 85.9 405.5 86.4 A 14.349 14.349 0 0 0 405.694 88.821 Q 405.931 90.207 406.459 91.357 A 8.773 8.773 0 0 0 406.55 91.55 A 3.581 3.581 0 0 0 409.085 93.573 A 5.479 5.479 0 0 0 410.3 93.7 A 7.954 7.954 0 0 0 412.432 93.389 Q 413.966 92.962 415.7 91.95 Q 418.7 90.2 421.65 87.75 Q 424.6 85.3 426.85 83.05 Q 429.016 80.884 429.931 79.784 A 13.662 13.662 0 0 0 430 79.7 Z M 114.7 71 L 116.7 68.9 Q 117.2 68.4 117.6 67.85 A 28.913 28.913 0 0 1 118.35 66.863 A 26.418 26.418 0 0 1 118.4 66.8 A 1.997 1.997 0 0 1 118.535 66.676 Q 118.674 66.561 118.788 66.521 A 0.341 0.341 0 0 1 118.9 66.5 Q 119.398 66.5 119.483 67.12 A 2.078 2.078 0 0 1 119.5 67.4 A 1.191 1.191 0 0 1 119.236 68.147 A 1.636 1.636 0 0 1 119.1 68.3 Q 118 69.7 116.9 71 Q 115.8 72.3 114.6 73.6 A 45.601 45.601 0 0 1 110.593 77.809 A 53.368 53.368 0 0 1 108.8 79.4 A 14.451 14.451 0 0 1 108.748 79.444 Q 107.083 80.844 105.24 81.533 A 10.594 10.594 0 0 1 101.5 82.2 Q 96.809 82.2 96.35 76.911 A 14.011 14.011 0 0 1 96.3 75.7 A 15.711 15.711 0 0 1 96.358 74.399 Q 96.431 73.513 96.6 72.5 A 20.281 20.281 0 0 1 97.006 70.806 Q 97.431 69.294 98.15 67.45 Q 99.3 64.5 100.75 61.55 A 123.047 123.047 0 0 1 101.802 59.457 Q 102.65 57.813 103.4 56.5 A 135.629 135.629 0 0 0 104.192 55.216 Q 104.54 54.646 104.917 54.017 A 245.233 245.233 0 0 0 105.7 52.7 Q 107 50.5 108.2 48.6 Q 109.4 46.7 109.7 46.1 Q 110.3 44.8 112.1 44.05 A 11.661 11.661 0 0 1 113.394 43.593 Q 114.425 43.3 115.3 43.3 A 4.25 4.25 0 0 1 115.844 43.332 Q 116.9 43.469 116.9 44.2 A 1.707 1.707 0 0 1 116.543 45.245 A 2.141 2.141 0 0 1 116.5 45.3 A 999.054 999.054 0 0 1 114.984 47.766 Q 114.314 48.852 113.58 50.035 A 1739.028 1739.028 0 0 1 112.05 52.5 Q 109.5 56.6 107.1 60.9 A 84.711 84.711 0 0 0 104.653 65.611 A 67.051 67.051 0 0 0 103.1 69.1 A 27.33 27.33 0 0 0 102.193 71.638 Q 101.825 72.87 101.652 73.968 A 11.819 11.819 0 0 0 101.5 75.8 A 6.654 6.654 0 0 0 101.565 76.761 Q 101.689 77.61 102.05 78.2 A 1.727 1.727 0 0 0 102.969 78.928 Q 103.281 79.041 103.67 79.08 A 4.334 4.334 0 0 0 104.1 79.1 A 4.077 4.077 0 0 0 105.405 78.868 Q 106.489 78.502 107.741 77.557 A 13.521 13.521 0 0 0 107.75 77.55 A 38.022 38.022 0 0 0 111.261 74.532 A 42.408 42.408 0 0 0 111.75 74.05 Q 113.7 72.1 114.7 71 Z M 521.8 71 L 523.8 68.9 Q 524.3 68.4 524.7 67.85 A 28.913 28.913 0 0 1 525.45 66.863 A 26.418 26.418 0 0 1 525.5 66.8 A 1.997 1.997 0 0 1 525.635 66.676 Q 525.774 66.561 525.888 66.521 A 0.341 0.341 0 0 1 526 66.5 Q 526.498 66.5 526.583 67.12 A 2.078 2.078 0 0 1 526.6 67.4 A 1.191 1.191 0 0 1 526.336 68.147 A 1.636 1.636 0 0 1 526.2 68.3 Q 525.1 69.7 524 71 Q 522.9 72.3 521.7 73.6 A 45.601 45.601 0 0 1 517.693 77.809 A 53.368 53.368 0 0 1 515.9 79.4 A 14.451 14.451 0 0 1 515.848 79.444 Q 514.183 80.844 512.34 81.533 A 10.594 10.594 0 0 1 508.6 82.2 Q 503.909 82.2 503.45 76.911 A 14.011 14.011 0 0 1 503.4 75.7 A 15.711 15.711 0 0 1 503.458 74.399 Q 503.531 73.513 503.7 72.5 A 20.281 20.281 0 0 1 504.106 70.806 Q 504.531 69.294 505.25 67.45 Q 506.4 64.5 507.85 61.55 A 123.047 123.047 0 0 1 508.902 59.457 Q 509.75 57.813 510.5 56.5 A 135.629 135.629 0 0 0 511.292 55.216 Q 511.64 54.646 512.017 54.017 A 245.233 245.233 0 0 0 512.8 52.7 Q 514.1 50.5 515.3 48.6 Q 516.5 46.7 516.8 46.1 Q 517.4 44.8 519.2 44.05 A 11.661 11.661 0 0 1 520.494 43.593 Q 521.525 43.3 522.4 43.3 A 4.25 4.25 0 0 1 522.944 43.332 Q 524 43.469 524 44.2 A 1.707 1.707 0 0 1 523.643 45.245 A 2.141 2.141 0 0 1 523.6 45.3 A 999.054 999.054 0 0 1 522.084 47.766 Q 521.414 48.852 520.68 50.035 A 1739.028 1739.028 0 0 1 519.15 52.5 Q 516.6 56.6 514.2 60.9 A 84.711 84.711 0 0 0 511.753 65.611 A 67.051 67.051 0 0 0 510.2 69.1 A 27.33 27.33 0 0 0 509.293 71.638 Q 508.925 72.87 508.752 73.968 A 11.819 11.819 0 0 0 508.6 75.8 A 6.654 6.654 0 0 0 508.665 76.761 Q 508.789 77.61 509.15 78.2 A 1.727 1.727 0 0 0 510.069 78.928 Q 510.381 79.041 510.77 79.08 A 4.334 4.334 0 0 0 511.2 79.1 A 4.077 4.077 0 0 0 512.505 78.868 Q 513.589 78.502 514.841 77.557 A 13.521 13.521 0 0 0 514.85 77.55 A 38.022 38.022 0 0 0 518.361 74.532 A 42.408 42.408 0 0 0 518.85 74.05 Q 520.8 72.1 521.8 71 Z M 352.8 50.9 L 353.2 50.9 Q 354 50.9 354 51.3 A 0.406 0.406 0 0 1 353.889 51.569 Q 353.684 51.806 353.1 52 A 7.122 7.122 0 0 1 352.519 52.2 Q 351.525 52.5 349.8 52.8 Q 347.5 53.2 345 53.45 Q 342.5 53.7 340.5 53.7 L 339.3 53.7 Q 338.8 53.7 338.4 53.6 L 337.4 54.1 A 5.906 5.906 0 0 1 338.22 55.837 Q 338.6 57.113 338.6 58.8 A 17.864 17.864 0 0 1 337.678 64.371 A 22.497 22.497 0 0 1 336.65 66.95 Q 334.7 71.1 331.55 74.65 A 33.011 33.011 0 0 1 327.668 78.39 A 27.296 27.296 0 0 1 324.85 80.4 Q 321.872 82.246 319.14 82.543 A 9.607 9.607 0 0 1 318.1 82.6 A 6.722 6.722 0 0 1 312.993 80.34 A 9.318 9.318 0 0 1 312.45 79.7 Q 310.2 76.8 310.2 72.3 Q 310.2 68.7 311.4 65.2 Q 312.6 61.8 314.65 58.7 Q 316.7 55.6 319.3 52.9 Q 322.7 49.4 327.05 46.8 Q 331.4 44.2 335 44.2 A 9.354 9.354 0 0 1 336.703 44.346 Q 337.669 44.525 338.431 44.924 A 4.761 4.761 0 0 1 339.35 45.55 A 4.771 4.771 0 0 1 340.368 46.763 A 4.012 4.012 0 0 1 340.9 48.8 A 4.194 4.194 0 0 1 340.724 49.969 Q 340.578 50.474 340.31 51.009 A 8.105 8.105 0 0 1 340.1 51.4 Q 342.7 51.7 345.2 51.7 Q 347.1 51.7 349 51.5 Q 350.9 51.3 352.8 50.9 Z M 567.1 50.9 L 567.5 50.9 Q 568.3 50.9 568.3 51.3 A 0.406 0.406 0 0 1 568.189 51.569 Q 567.984 51.806 567.4 52 A 7.122 7.122 0 0 1 566.819 52.2 Q 565.825 52.5 564.1 52.8 Q 561.8 53.2 559.3 53.45 Q 556.8 53.7 554.8 53.7 L 553.6 53.7 Q 553.1 53.7 552.7 53.6 L 551.7 54.1 A 5.906 5.906 0 0 1 552.52 55.837 Q 552.9 57.113 552.9 58.8 A 17.864 17.864 0 0 1 551.978 64.371 A 22.497 22.497 0 0 1 550.95 66.95 Q 549 71.1 545.85 74.65 A 33.011 33.011 0 0 1 541.968 78.39 A 27.296 27.296 0 0 1 539.15 80.4 Q 536.172 82.246 533.44 82.543 A 9.607 9.607 0 0 1 532.4 82.6 A 6.722 6.722 0 0 1 527.293 80.34 A 9.318 9.318 0 0 1 526.75 79.7 Q 524.5 76.8 524.5 72.3 Q 524.5 68.7 525.7 65.2 Q 526.9 61.8 528.95 58.7 Q 531 55.6 533.6 52.9 Q 537 49.4 541.35 46.8 Q 545.7 44.2 549.3 44.2 A 9.354 9.354 0 0 1 551.003 44.346 Q 551.969 44.525 552.731 44.924 A 4.761 4.761 0 0 1 553.65 45.55 A 4.771 4.771 0 0 1 554.668 46.763 A 4.012 4.012 0 0 1 555.2 48.8 A 4.194 4.194 0 0 1 555.024 49.969 Q 554.878 50.474 554.61 51.009 A 8.105 8.105 0 0 1 554.4 51.4 Q 557 51.7 559.5 51.7 Q 561.4 51.7 563.3 51.5 Q 565.2 51.3 567.1 50.9 Z M 76.2 37.8 A 98.623 98.623 0 0 0 81.192 35.316 A 117.815 117.815 0 0 0 84.3 33.6 Q 88.4 31.3 92.4 28.65 Q 96.4 26 100 23.1 Q 103.5 20.3 106.2 17.3 A 33.828 33.828 0 0 0 108.401 14.704 Q 109.46 13.311 110.226 11.952 A 19.791 19.791 0 0 0 110.5 11.45 Q 112 8.6 112 5.9 A 4.281 4.281 0 0 0 111.736 4.438 A 5.076 5.076 0 0 0 111.6 4.1 Q 111.26 3.335 109.764 3.221 A 7.394 7.394 0 0 0 109.2 3.2 A 12.686 12.686 0 0 0 104.989 3.945 A 16.345 16.345 0 0 0 102.9 4.85 A 30.068 30.068 0 0 0 98.571 7.592 A 35.975 35.975 0 0 0 96.65 9.15 Q 93.6 11.8 91 14.75 Q 88.4 17.7 86.5 20.3 A 85.429 85.429 0 0 0 82.708 25.949 Q 80.711 29.176 78.668 32.999 A 174.929 174.929 0 0 0 76.2 37.8 Z M 319 80.2 Q 321.7 80.2 324.3 78.25 A 19.374 19.374 0 0 0 327.302 75.428 A 24.854 24.854 0 0 0 329.05 73.15 Q 331.2 70 332.65 66.35 A 34.308 34.308 0 0 0 334.037 62.104 A 28.099 28.099 0 0 0 334.6 59.3 A 7.339 7.339 0 0 0 334.69 58.499 A 6.32 6.32 0 0 0 334.7 58.15 L 334.7 57.1 Q 334.7 56.2 334.6 55.45 Q 334.534 54.958 334.383 54.617 A 1.625 1.625 0 0 0 334.2 54.3 Q 334.066 54.3 333.977 54.256 A 0.296 0.296 0 0 1 333.9 54.2 A 7.83 7.83 0 0 1 333.277 54.072 Q 332.545 53.888 332.15 53.6 Q 331.6 53.2 330.9 52.7 Q 330.5 52.2 330.5 51.5 Q 330.5 50.8 331.05 50.4 Q 331.543 50.042 332.156 50.165 A 1.855 1.855 0 0 1 332.3 50.2 Q 334.8 50.7 337.7 51.1 A 8.97 8.97 0 0 0 338.269 49.967 Q 338.525 49.345 338.629 48.768 A 4.328 4.328 0 0 0 338.7 48 A 2.197 2.197 0 0 0 338.353 46.741 Q 337.773 45.882 336.222 45.67 A 8.31 8.31 0 0 0 335.1 45.6 Q 332.9 45.6 330.55 47.25 A 22.695 22.695 0 0 0 328.067 49.286 A 30.735 30.735 0 0 0 325.9 51.55 A 56.433 56.433 0 0 0 322.161 56.378 A 63.392 63.392 0 0 0 321.5 57.35 Q 319.4 60.5 317.9 63.5 A 19.526 19.526 0 0 0 317.075 65.418 Q 316.698 66.428 316.367 67.6 A 36.246 36.246 0 0 0 316.15 68.4 A 23.502 23.502 0 0 0 315.477 72.25 A 20.207 20.207 0 0 0 315.4 74 A 12.394 12.394 0 0 0 315.575 76.132 A 8.996 8.996 0 0 0 316.25 78.35 Q 317.1 80.2 319 80.2 Z M 533.3 80.2 Q 536 80.2 538.6 78.25 A 19.374 19.374 0 0 0 541.602 75.428 A 24.854 24.854 0 0 0 543.35 73.15 Q 545.5 70 546.95 66.35 A 34.308 34.308 0 0 0 548.337 62.104 A 28.099 28.099 0 0 0 548.9 59.3 A 7.339 7.339 0 0 0 548.99 58.499 A 6.32 6.32 0 0 0 549 58.15 L 549 57.1 Q 549 56.2 548.9 55.45 Q 548.834 54.958 548.683 54.617 A 1.625 1.625 0 0 0 548.5 54.3 Q 548.366 54.3 548.277 54.256 A 0.296 0.296 0 0 1 548.2 54.2 A 7.83 7.83 0 0 1 547.577 54.072 Q 546.845 53.888 546.45 53.6 Q 545.9 53.2 545.2 52.7 Q 544.8 52.2 544.8 51.5 Q 544.8 50.8 545.35 50.4 Q 545.843 50.042 546.456 50.165 A 1.855 1.855 0 0 1 546.6 50.2 Q 549.1 50.7 552 51.1 A 8.97 8.97 0 0 0 552.569 49.967 Q 552.825 49.345 552.929 48.768 A 4.328 4.328 0 0 0 553 48 A 2.197 2.197 0 0 0 552.653 46.741 Q 552.073 45.882 550.522 45.67 A 8.31 8.31 0 0 0 549.4 45.6 Q 547.2 45.6 544.85 47.25 A 22.695 22.695 0 0 0 542.367 49.286 A 30.735 30.735 0 0 0 540.2 51.55 A 56.433 56.433 0 0 0 536.461 56.378 A 63.392 63.392 0 0 0 535.8 57.35 Q 533.7 60.5 532.2 63.5 A 19.526 19.526 0 0 0 531.375 65.418 Q 530.998 66.428 530.667 67.6 A 36.246 36.246 0 0 0 530.45 68.4 A 23.502 23.502 0 0 0 529.777 72.25 A 20.207 20.207 0 0 0 529.7 74 A 12.394 12.394 0 0 0 529.875 76.132 A 8.996 8.996 0 0 0 530.55 78.35 Q 531.4 80.2 533.3 80.2 Z M 360.4 43.6 A 87.226 87.226 0 0 0 367.232 39.851 A 103.225 103.225 0 0 0 370.4 37.85 Q 375.5 34.5 380.1 30.65 A 66.824 66.824 0 0 0 384.864 26.272 A 53.688 53.688 0 0 0 388 22.8 A 31.94 31.94 0 0 0 390.429 19.461 Q 391.849 17.197 392.6 15 A 7.558 7.558 0 0 0 393 12.638 A 7.204 7.204 0 0 0 393 12.6 Q 393 9.793 390.95 9.528 A 3.509 3.509 0 0 0 390.5 9.5 Q 389.151 9.5 387.731 10.496 A 8.604 8.604 0 0 0 387.2 10.9 Q 380.5 16.2 373.5 24.8 A 156.881 156.881 0 0 0 361.939 41.075 A 174.754 174.754 0 0 0 360.4 43.6 Z M 390.5 43.6 A 87.226 87.226 0 0 0 397.332 39.851 A 103.225 103.225 0 0 0 400.5 37.85 Q 405.6 34.5 410.2 30.65 A 66.824 66.824 0 0 0 414.964 26.272 A 53.688 53.688 0 0 0 418.1 22.8 A 31.94 31.94 0 0 0 420.529 19.461 Q 421.949 17.197 422.7 15 A 7.558 7.558 0 0 0 423.1 12.638 A 7.204 7.204 0 0 0 423.1 12.6 Q 423.1 9.793 421.05 9.528 A 3.509 3.509 0 0 0 420.6 9.5 Q 419.251 9.5 417.831 10.496 A 8.604 8.604 0 0 0 417.3 10.9 Q 410.6 16.2 403.6 24.8 A 156.881 156.881 0 0 0 392.039 41.075 A 174.754 174.754 0 0 0 390.5 43.6 Z M 29.2 28.4 Q 34.4 28.4 40.05 28 Q 45.7 27.6 51.1 26.7 A 75.225 75.225 0 0 0 56.875 25.514 A 59.428 59.428 0 0 0 60.95 24.35 Q 64.444 23.212 66.921 21.734 A 18.553 18.553 0 0 0 68.2 20.9 Q 69.739 19.605 70.031 18.899 A 0.791 0.791 0 0 0 70.1 18.6 Q 70.1 17.6 66.2 17 Q 64.7 16.8 63.2 16.7 A 44.809 44.809 0 0 0 61.006 16.607 A 40.263 40.263 0 0 0 60.3 16.6 A 43.647 43.647 0 0 0 52.902 17.206 A 36.809 36.809 0 0 0 48.8 18.15 A 57.269 57.269 0 0 0 43.186 20.1 A 45.542 45.542 0 0 0 39.3 21.9 Q 37.769 22.666 35.857 23.783 A 97.577 97.577 0 0 0 34.65 24.5 A 41.993 41.993 0 0 0 31.621 26.522 A 53.198 53.198 0 0 0 29.2 28.4 Z M 273.2 63.8 A 1.071 1.071 0 0 0 272.929 63.577 Q 272.275 63.169 270.4 62.7 Q 269.417 62.549 268.092 62.512 A 32.082 32.082 0 0 0 267.2 62.5 L 265.25 62.5 A 12.589 12.589 0 0 0 263.915 62.575 A 15.716 15.716 0 0 0 263 62.7 A 4.438 4.438 0 0 0 262.808 62.706 Q 262.3 62.728 261 62.85 Q 259.625 62.979 257.918 63.108 A 245.623 245.623 0 0 1 257.35 63.15 Q 255.3 63.3 253.5 63.45 Q 251.7 63.6 250.9 63.6 Q 248.5 63.6 247.8 62.35 Q 247.125 61.145 247.101 59.427 A 9.109 9.109 0 0 1 247.1 59.3 Q 248.566 59.545 250.496 59.59 A 38.505 38.505 0 0 0 251.4 59.6 Q 255.5 59.6 260.4 59.2 Q 264.892 58.834 268.543 58.971 A 48.361 48.361 0 0 1 269.2 59 A 8.92 8.92 0 0 1 270.356 59.15 Q 271.631 59.409 272.235 60.038 A 1.885 1.885 0 0 1 272.65 60.7 Q 273.2 62.2 273.2 63.8 Z M 413.523 69.084 A 20.558 20.558 0 0 0 413.7 69 A 44.939 44.939 0 0 0 416.264 67.672 A 55.944 55.944 0 0 0 418.1 66.6 A 58.091 58.091 0 0 0 421.097 64.652 A 49.788 49.788 0 0 0 422.35 63.75 Q 424.3 62.3 425.5 61.3 A 13.724 13.724 0 0 0 427.447 59.463 A 10.51 10.51 0 0 0 428.9 57.3 A 13.85 13.85 0 0 0 429.48 55.984 Q 429.74 55.292 429.87 54.671 A 5.726 5.726 0 0 0 430 53.5 A 3.69 3.69 0 0 0 429.871 52.505 A 3.016 3.016 0 0 0 429.45 51.6 A 1.789 1.789 0 0 0 428.138 50.821 A 2.692 2.692 0 0 0 427.8 50.8 A 5.095 5.095 0 0 0 425.966 51.165 Q 424.667 51.665 423.25 52.85 Q 420.877 54.836 418.503 57.854 A 46.675 46.675 0 0 0 418.35 58.05 Q 415.9 61.2 413.75 64.45 A 164.12 164.12 0 0 0 412.243 66.768 Q 411.513 67.913 410.898 68.929 A 80.666 80.666 0 0 0 410.2 70.1 Q 411.541 70.005 413.523 69.084 Z M 116.687 38.381 A 3.906 3.906 0 0 0 117.7 38.5 Q 119 38.5 119.95 37.65 Q 120.9 36.8 121.2 35.5 Q 121.242 35.227 121.242 34.971 A 2.528 2.528 0 0 0 120.65 33.3 A 2.391 2.391 0 0 0 119.515 32.532 A 3.021 3.021 0 0 0 118.6 32.4 A 3.12 3.12 0 0 0 117.09 32.79 A 4.194 4.194 0 0 0 116.2 33.45 A 4.199 4.199 0 0 0 116.131 33.517 A 3.383 3.383 0 0 0 115.1 36 Q 115.1 37.953 116.687 38.381 Z M 523.787 38.381 A 3.906 3.906 0 0 0 524.8 38.5 Q 526.1 38.5 527.05 37.65 Q 528 36.8 528.3 35.5 Q 528.342 35.227 528.342 34.971 A 2.528 2.528 0 0 0 527.75 33.3 A 2.391 2.391 0 0 0 526.615 32.532 A 3.021 3.021 0 0 0 525.7 32.4 A 3.12 3.12 0 0 0 524.19 32.79 A 4.194 4.194 0 0 0 523.3 33.45 A 4.199 4.199 0 0 0 523.231 33.517 A 3.383 3.383 0 0 0 522.2 36 Q 522.2 37.953 523.787 38.381 Z" vector-effect="non-scaling-stroke"/></g></svg>