<!-- <svg width="180" height="30" viewBox="0 0 180 30" fill="none" xmlns="http://www.w3.org/2000/svg">
<path d="M8.01647 24V9.912H0.960469V6.72H18.2405V9.912H11.2085V24H8.01647ZM24.4274 24C23.8194 24 23.2674 23.848 22.7714 23.544C22.2754 23.24 21.8754 22.84 21.5714 22.344C21.2674 21.848 21.1154 21.296 21.1154 20.688V13.392C21.1154 12.784 21.2674 12.232 21.5714 11.736C21.8754 11.24 22.2754 10.84 22.7714 10.536C23.2674 10.232 23.8194 10.08 24.4274 10.08H31.9394C32.5474 10.08 33.0994 10.232 33.5954 10.536C34.1074 10.84 34.5074 11.24 34.7954 11.736C35.0994 12.232 35.2514 12.784 35.2514 13.392V18.624H24.2594V20.568C24.2594 20.648 24.2834 20.72 24.3314 20.784C24.3954 20.832 24.4674 20.856 24.5474 20.856H35.2514V24H24.4274ZM24.2594 15.792H32.1074V13.512C32.1074 13.432 32.0754 13.368 32.0114 13.32C31.9634 13.256 31.8994 13.224 31.8194 13.224H24.5474C24.4674 13.224 24.3954 13.256 24.3314 13.32C24.2834 13.368 24.2594 13.432 24.2594 13.512V15.792ZM41.6821 24C41.0741 24 40.5221 23.848 40.0261 23.544C39.5301 23.24 39.1301 22.84 38.8261 22.344C38.5221 21.848 38.3701 21.296 38.3701 20.688V13.392C38.3701 12.784 38.5221 12.232 38.8261 11.736C39.1301 11.24 39.5301 10.84 40.0261 10.536C40.5221 10.232 41.0741 10.08 41.6821 10.08H52.4821V13.224H41.8021C41.7221 13.224 41.6501 13.256 41.5861 13.32C41.5381 13.368 41.5141 13.432 41.5141 13.512V20.568C41.5141 20.648 41.5381 20.72 41.5861 20.784C41.6501 20.832 41.7221 20.856 41.8021 20.856H52.5061V24H41.6821ZM55.7437 24V5.52H58.8877V10.08H66.5677C67.1757 10.08 67.7277 10.232 68.2237 10.536C68.7197 10.84 69.1197 11.24 69.4237 11.736C69.7277 12.232 69.8797 12.784 69.8797 13.392V24H66.7357V13.512C66.7357 13.432 66.7037 13.368 66.6397 13.32C66.5917 13.256 66.5277 13.224 66.4477 13.224H59.1757C59.0957 13.224 59.0237 13.256 58.9597 13.32C58.9117 13.368 58.8877 13.432 58.8877 13.512V24H55.7437Z" fill="black"/>
<path d="M81.5828 24V6.72H84.7508V13.752H96.0788V6.72H99.2468V24H96.0788V16.968H84.7508V24H81.5828ZM106.389 24C105.781 24 105.221 23.848 104.709 23.544C104.213 23.24 103.813 22.84 103.509 22.344C103.221 21.848 103.077 21.296 103.077 20.688V15.456H114.069V13.512C114.069 13.432 114.037 13.368 113.973 13.32C113.925 13.256 113.861 13.224 113.781 13.224H103.077V10.08H113.901C114.509 10.08 115.061 10.232 115.557 10.536C116.069 10.84 116.469 11.24 116.757 11.736C117.061 12.232 117.213 12.784 117.213 13.392V24H106.389ZM106.509 20.856H114.069V18.288H106.221V20.568C106.221 20.648 106.245 20.72 106.293 20.784C106.357 20.832 106.429 20.856 106.509 20.856ZM127.08 24L119.424 10.08H123.048L128.544 20.184L134.016 10.08H137.64L129.96 24H127.08ZM142.89 24C142.282 24 141.73 23.848 141.234 23.544C140.738 23.24 140.338 22.84 140.034 22.344C139.73 21.848 139.578 21.296 139.578 20.688V13.392C139.578 12.784 139.73 12.232 140.034 11.736C140.338 11.24 140.738 10.84 141.234 10.536C141.73 10.232 142.282 10.08 142.89 10.08H150.402C151.01 10.08 151.562 10.232 152.058 10.536C152.57 10.84 152.97 11.24 153.258 11.736C153.562 12.232 153.714 12.784 153.714 13.392V18.624H142.722V20.568C142.722 20.648 142.746 20.72 142.794 20.784C142.858 20.832 142.93 20.856 143.01 20.856H153.714V24H142.89ZM142.722 15.792H150.57V13.512C150.57 13.432 150.538 13.368 150.474 13.32C150.426 13.256 150.362 13.224 150.282 13.224H143.01C142.93 13.224 142.858 13.256 142.794 13.32C142.746 13.368 142.722 13.432 142.722 13.512V15.792ZM157.467 24V10.08H168.291C168.899 10.08 169.451 10.232 169.947 10.536C170.459 10.84 170.859 11.24 171.147 11.736C171.451 12.232 171.603 12.784 171.603 13.392V24H168.459V13.512C168.459 13.432 168.427 13.368 168.363 13.32C168.315 13.256 168.251 13.224 168.171 13.224H160.899C160.819 13.224 160.747 13.256 160.683 13.32C160.635 13.368 160.611 13.432 160.611 13.512V24H157.467ZM175.378 24V20.856H178.522V24H175.378Z" fill="#14111C"/>
</svg> -->
<svg width="538.477" height="74.512" viewBox="0 0 538.477 74.512" xmlns="http://www.w3.org/2000/svg"><g id="svgGroup" stroke-linecap="round" fill-rule="evenodd" font-size="9pt" stroke="#000000" stroke-width="0.25mm" fill="#000000" style="stroke:#000000;stroke-width:0.25mm;fill:#000000"><path d="M 202.1 64.307 L 202.1 43.994 A 49.908 49.908 0 0 0 202.081 42.587 A 40.874 40.874 0 0 0 202.051 41.797 Q 202.006 40.862 201.84 40.13 A 6.658 6.658 0 0 0 201.807 39.99 Q 201.611 39.209 201.245 38.745 A 1.181 1.181 0 0 0 200.38 38.287 A 1.624 1.624 0 0 0 200.244 38.281 A 1.893 1.893 0 0 0 199.533 38.435 Q 198.932 38.68 198.214 39.313 A 10.085 10.085 0 0 0 197.754 39.746 A 14.842 14.842 0 0 0 196.491 41.196 Q 195.891 41.976 195.308 42.913 A 26.423 26.423 0 0 0 194.922 43.555 A 29.943 29.943 0 0 0 193.365 46.638 A 37.392 37.392 0 0 0 192.481 48.853 Q 191.406 51.807 191.211 54.785 L 191.211 69.385 A 46.198 46.198 0 0 1 191.187 70.874 A 3.999 3.999 0 0 1 191.082 71.679 A 3.308 3.308 0 0 1 190.894 72.241 A 2.526 2.526 0 0 1 190.064 73.267 Q 189.502 73.682 188.428 73.682 A 7.247 7.247 0 0 1 187.565 73.628 A 9.419 9.419 0 0 1 186.841 73.511 A 4.396 4.396 0 0 1 185.278 72.876 A 3.349 3.349 0 0 1 184.404 72.031 A 4.272 4.272 0 0 1 184.107 71.558 A 3.401 3.401 0 0 1 183.806 70.771 Q 183.643 70.128 183.643 69.287 L 183.643 43.994 A 33.286 33.286 0 0 0 183.614 42.587 A 27.323 27.323 0 0 0 183.569 41.797 A 13.038 13.038 0 0 0 183.482 40.947 Q 183.411 40.43 183.301 39.99 Q 183.106 39.209 182.739 38.745 A 1.181 1.181 0 0 0 181.874 38.287 A 1.624 1.624 0 0 0 181.738 38.281 A 1.882 1.882 0 0 0 181.021 38.439 Q 180.418 38.688 179.704 39.332 A 9.914 9.914 0 0 0 179.273 39.746 A 15.676 15.676 0 0 0 178.022 41.196 Q 177.223 42.236 176.441 43.555 A 27.818 27.818 0 0 0 174.835 46.723 A 34.395 34.395 0 0 0 173.999 48.853 A 23.362 23.362 0 0 0 172.705 54.785 L 172.705 69.385 A 46.198 46.198 0 0 1 172.681 70.874 A 3.999 3.999 0 0 1 172.576 71.679 A 3.308 3.308 0 0 1 172.388 72.241 A 2.526 2.526 0 0 1 171.558 73.267 Q 170.996 73.682 169.922 73.682 A 7.247 7.247 0 0 1 169.059 73.628 A 9.419 9.419 0 0 1 168.335 73.511 A 4.396 4.396 0 0 1 166.773 72.876 A 3.349 3.349 0 0 1 165.898 72.031 A 4.272 4.272 0 0 1 165.601 71.558 A 3.401 3.401 0 0 1 165.3 70.771 Q 165.137 70.128 165.137 69.287 L 165.137 37.598 A 14.721 14.721 0 0 0 165.123 36.939 Q 165.082 36.023 164.917 35.547 A 4.357 4.357 0 0 1 164.763 34.992 Q 164.697 34.669 164.697 34.375 A 1.229 1.229 0 0 1 165.11 33.453 A 2.074 2.074 0 0 1 165.479 33.179 A 3.266 3.266 0 0 1 166.626 32.77 A 4.349 4.349 0 0 1 167.334 32.715 A 7.767 7.767 0 0 1 168.922 32.868 Q 170.319 33.16 171.265 34.009 Q 172.705 35.303 172.705 37.11 L 172.705 41.309 A 33.322 33.322 0 0 1 174.405 38.17 A 29.667 29.667 0 0 1 174.829 37.5 A 19.555 19.555 0 0 1 176.321 35.496 A 16.161 16.161 0 0 1 177.295 34.448 A 11.508 11.508 0 0 1 179.077 33.006 A 9.86 9.86 0 0 1 180.103 32.422 A 7.15 7.15 0 0 1 183.301 31.69 A 10.082 10.082 0 0 1 184.879 31.806 Q 186.105 32.001 187.036 32.52 A 6.761 6.761 0 0 1 189.429 34.717 A 9.278 9.278 0 0 1 190.71 37.716 A 10.44 10.44 0 0 1 190.723 37.769 Q 191.113 39.453 191.211 41.113 A 29.398 29.398 0 0 1 192.848 38.054 A 26.306 26.306 0 0 1 193.262 37.403 A 18.334 18.334 0 0 1 194.82 35.349 A 15.563 15.563 0 0 1 195.703 34.424 A 11.691 11.691 0 0 1 197.574 32.946 A 10.174 10.174 0 0 1 198.511 32.422 A 7.15 7.15 0 0 1 201.709 31.69 A 10.56 10.56 0 0 1 203.384 31.815 Q 204.724 32.03 205.713 32.617 Q 207.276 33.545 208.154 35.01 A 9.716 9.716 0 0 1 209.281 37.835 A 11.17 11.17 0 0 1 209.375 38.281 Q 209.717 40.088 209.717 41.797 L 209.717 62.5 A 7.283 7.283 0 0 0 209.72 62.697 Q 209.729 63.015 209.762 63.543 A 50.9 50.9 0 0 0 209.766 63.599 A 6.445 6.445 0 0 0 209.987 64.893 A 7.31 7.31 0 0 0 210.059 65.137 A 3.746 3.746 0 0 0 210.816 66.504 A 1.652 1.652 0 0 0 211.688 67.021 Q 211.96 67.088 212.284 67.09 A 3.231 3.231 0 0 0 212.305 67.09 A 3.608 3.608 0 0 0 214.915 66.018 A 3.956 3.956 0 0 0 214.917 66.016 A 9.029 9.029 0 0 0 216.147 64.507 A 11.572 11.572 0 0 0 216.821 63.33 A 19.726 19.726 0 0 0 217.953 60.535 A 22.431 22.431 0 0 0 218.164 59.839 A 53.054 53.054 0 0 0 218.733 57.684 A 42.791 42.791 0 0 0 219.043 56.299 A 7.831 7.831 0 0 1 219.249 55.447 Q 219.532 54.526 219.995 54.028 A 2.624 2.624 0 0 1 220.463 53.625 A 1.732 1.732 0 0 1 221.436 53.32 A 2.059 2.059 0 0 1 222.14 53.45 A 2.834 2.834 0 0 1 222.632 53.687 A 4.596 4.596 0 0 1 223.551 54.418 A 5.355 5.355 0 0 1 223.755 54.639 A 5.018 5.018 0 0 1 224.585 55.957 A 3.825 3.825 0 0 1 224.868 56.941 A 3.41 3.41 0 0 1 224.902 57.422 L 224.902 57.666 Q 224.902 57.786 224.837 58.003 A 3.526 3.526 0 0 1 224.805 58.106 A 45.032 45.032 0 0 1 223.788 61.314 A 54.887 54.887 0 0 1 223.023 63.33 Q 221.924 66.065 220.215 68.36 Q 218.506 70.654 216.113 72.168 A 9.747 9.747 0 0 1 212.081 73.584 A 12.5 12.5 0 0 1 210.498 73.682 A 9.008 9.008 0 0 1 208.612 73.493 A 7.085 7.085 0 0 1 206.958 72.925 A 8.284 8.284 0 0 1 204.321 70.899 A 8.498 8.498 0 0 1 202.771 68.237 A 9.807 9.807 0 0 1 202.661 67.92 A 11.467 11.467 0 0 1 202.1 64.426 A 12.854 12.854 0 0 1 202.1 64.307 Z M 12.158 73.804 A 11.073 11.073 0 0 0 13.262 74.111 Q 15.042 74.512 17.432 74.512 Q 20.557 74.512 23.291 73.34 Q 26.026 72.168 28.027 70.166 Q 30.029 68.164 31.177 65.454 A 14.563 14.563 0 0 0 32.324 59.717 A 16.371 16.371 0 0 0 32.164 57.384 A 12.481 12.481 0 0 0 31.275 54.175 A 16.75 16.75 0 0 0 28.491 49.78 Q 26.758 47.803 24.561 46.167 A 111.152 111.152 0 0 0 20.068 42.993 A 197.137 197.137 0 0 1 15.576 39.893 A 28.438 28.438 0 0 1 15.303 39.696 A 25.726 25.726 0 0 1 11.646 36.475 A 15.604 15.604 0 0 1 8.862 32.349 A 10.918 10.918 0 0 1 8.109 30.086 A 13.531 13.531 0 0 1 7.813 27.197 A 14.7 14.7 0 0 1 8.765 21.948 A 20.316 20.316 0 0 1 11.279 17.261 A 23.848 23.848 0 0 1 14.893 13.281 A 29.334 29.334 0 0 1 15.472 12.784 A 26.038 26.038 0 0 1 19.141 10.205 Q 21.338 8.936 23.511 8.228 Q 25.684 7.52 27.539 7.52 A 9.775 9.775 0 0 1 28.887 7.607 Q 29.663 7.715 30.279 7.958 A 3.673 3.673 0 0 1 31.763 8.985 A 4.571 4.571 0 0 1 32.241 9.665 Q 32.672 10.413 32.861 11.37 A 8.369 8.369 0 0 1 33.008 12.988 A 9.163 9.163 0 0 1 32.537 15.836 A 12.541 12.541 0 0 1 31.519 18.115 Q 30.029 20.752 27.832 22.949 A 24.661 24.661 0 0 1 26.998 23.746 A 21.533 21.533 0 0 1 23.145 26.563 A 14.509 14.509 0 0 1 22.198 27.057 Q 20.258 27.979 18.604 27.979 Q 17.969 27.979 17.481 27.857 Q 17.16 27.776 16.913 27.738 A 3.17 3.17 0 0 0 16.675 27.71 A 0.964 0.964 0 0 0 16.666 27.709 Q 16.574 27.703 16.495 27.716 A 0.498 0.498 0 0 0 16.187 27.881 A 0.339 0.339 0 0 0 16.174 27.897 Q 16.016 28.101 16.016 28.711 Q 16.016 29.199 16.168 29.773 A 6.769 6.769 0 0 0 16.406 30.493 A 7.017 7.017 0 0 0 16.536 30.804 A 7.617 7.617 0 0 0 17.505 32.398 A 5.847 5.847 0 0 0 17.641 32.565 A 6.143 6.143 0 0 0 19.263 33.911 A 4.38 4.38 0 0 0 20.124 34.295 A 4.887 4.887 0 0 0 21.631 34.522 A 6.293 6.293 0 0 0 22.452 34.465 Q 23.076 34.383 23.771 34.181 A 13.345 13.345 0 0 0 25.147 33.692 Q 27.149 32.861 29.273 31.372 A 28.32 28.32 0 0 0 30.591 30.389 A 32.822 32.822 0 0 0 33.423 27.857 A 29.68 29.68 0 0 0 37.061 23.438 A 23.337 23.337 0 0 0 39.649 18.36 A 15.891 15.891 0 0 0 40.625 12.891 A 17.674 17.674 0 0 0 40.512 10.858 A 13.967 13.967 0 0 0 39.746 7.593 A 13.379 13.379 0 0 0 39.485 6.94 A 11.422 11.422 0 0 0 37.256 3.54 A 10.333 10.333 0 0 0 36.177 2.561 A 11.407 11.407 0 0 0 33.301 0.928 A 12.675 12.675 0 0 0 30.975 0.262 A 15.92 15.92 0 0 0 28.027 0 Q 24.609 0 21.216 1.099 A 29.932 29.932 0 0 0 14.697 4.126 A 33.702 33.702 0 0 0 8.887 8.667 Q 6.201 11.279 4.224 14.282 A 27.455 27.455 0 0 0 1.123 20.606 A 23.054 23.054 0 0 0 0.915 21.254 A 20.25 20.25 0 0 0 0 27.197 A 23.858 23.858 0 0 0 0.208 30.42 A 17.688 17.688 0 0 0 1.05 33.96 Q 2.1 36.914 3.809 39.258 Q 5.518 41.602 7.715 43.408 A 62.121 62.121 0 0 0 12.207 46.778 A 334.06 334.06 0 0 0 12.35 46.875 A 308.366 308.366 0 0 0 16.699 49.78 A 38.771 38.771 0 0 1 18.283 50.874 A 31.387 31.387 0 0 1 20.606 52.735 A 15.899 15.899 0 0 1 21.467 53.556 A 13.316 13.316 0 0 1 23.364 56.006 A 7.193 7.193 0 0 1 24.063 57.576 A 8.201 8.201 0 0 1 24.414 60.01 Q 24.414 63.233 22.461 65.112 A 6.468 6.468 0 0 1 19.746 66.682 A 8.24 8.24 0 0 1 17.432 66.992 A 11.406 11.406 0 0 1 17.228 66.991 Q 16.613 66.98 16.069 66.901 A 6.584 6.584 0 0 1 14.966 66.651 A 13.055 13.055 0 0 1 14.658 66.546 Q 14.243 66.399 13.886 66.24 A 6.987 6.987 0 0 1 13.208 65.894 A 8.347 8.347 0 0 1 12.845 65.669 Q 12.626 65.525 12.447 65.384 A 3.754 3.754 0 0 1 12.109 65.088 L 11.621 64.6 Q 11.439 64.236 11.215 64.023 A 1.013 1.013 0 0 0 10.498 63.721 A 1.016 1.016 0 0 0 10.422 63.724 Q 10.066 63.751 9.648 64.025 A 3.671 3.671 0 0 0 9.277 64.307 A 6.562 6.562 0 0 0 8.698 64.871 A 8.101 8.101 0 0 0 8.008 65.747 A 9.148 9.148 0 0 0 7.031 67.603 A 6.187 6.187 0 0 0 6.761 68.47 A 4.535 4.535 0 0 0 6.641 69.483 A 0.483 0.483 0 0 0 6.662 69.61 Q 6.724 69.828 6.963 70.25 A 11.162 11.162 0 0 0 7.129 70.532 Q 7.465 71.086 8.147 71.675 A 10.017 10.017 0 0 0 8.838 72.217 A 8.237 8.237 0 0 0 9.591 72.696 Q 10.12 72.996 10.763 73.273 A 18.265 18.265 0 0 0 12.158 73.804 Z M 43.115 69.287 L 43.115 9.278 A 11.078 11.078 0 0 0 43.099 8.649 Q 43.062 8.005 42.944 7.569 Q 42.774 6.934 42.603 6.568 A 4.369 4.369 0 0 0 42.476 6.316 Q 42.368 6.12 42.261 5.982 Q 42.09 5.762 42.09 5.518 A 0.528 0.528 0 0 1 42.258 5.13 A 0.842 0.842 0 0 1 42.383 5.029 A 2.087 2.087 0 0 1 42.642 4.884 Q 42.779 4.819 42.943 4.76 A 4.467 4.467 0 0 1 43.164 4.688 A 6.352 6.352 0 0 1 43.904 4.515 A 7.455 7.455 0 0 1 44.214 4.468 A 8.491 8.491 0 0 1 45.313 4.395 A 7.767 7.767 0 0 1 46.901 4.548 Q 48.298 4.839 49.243 5.689 Q 50.684 6.983 50.684 8.789 L 50.684 41.602 A 35.178 35.178 0 0 1 52.463 38.383 A 31.477 31.477 0 0 1 52.905 37.695 A 19.837 19.837 0 0 1 54.56 35.524 A 16.764 16.764 0 0 1 55.493 34.546 A 11.826 11.826 0 0 1 57.493 32.98 A 10.346 10.346 0 0 1 58.472 32.446 Q 60.059 31.69 61.914 31.69 Q 63.918 31.69 65.353 32.29 A 5.872 5.872 0 0 1 66.016 32.617 A 7.439 7.439 0 0 1 67.908 34.147 A 6.862 6.862 0 0 1 68.555 35.01 A 9.567 9.567 0 0 1 69.801 38.057 A 10.871 10.871 0 0 1 69.849 38.281 A 18.056 18.056 0 0 1 70.202 41.153 A 16.219 16.219 0 0 1 70.215 41.797 L 70.215 62.5 A 7.283 7.283 0 0 0 70.218 62.697 Q 70.227 63.015 70.26 63.543 A 50.9 50.9 0 0 0 70.264 63.599 A 6.445 6.445 0 0 0 70.485 64.893 A 7.31 7.31 0 0 0 70.557 65.137 A 3.746 3.746 0 0 0 71.314 66.504 A 1.652 1.652 0 0 0 72.186 67.021 Q 72.458 67.088 72.782 67.09 A 3.231 3.231 0 0 0 72.803 67.09 A 3.608 3.608 0 0 0 75.413 66.018 A 3.956 3.956 0 0 0 75.415 66.016 A 9.029 9.029 0 0 0 76.645 64.507 A 11.572 11.572 0 0 0 77.319 63.33 Q 78.125 61.719 78.638 59.839 A 64.145 64.145 0 0 0 79.108 58.014 A 52.046 52.046 0 0 0 79.492 56.299 Q 79.766 54.887 80.315 54.197 A 2.227 2.227 0 0 1 80.396 54.102 A 2.833 2.833 0 0 1 80.827 53.704 Q 81.134 53.478 81.463 53.391 A 1.638 1.638 0 0 1 81.714 53.345 A 1.969 1.969 0 0 1 81.917 53.334 Q 82.298 53.334 82.686 53.482 A 2.932 2.932 0 0 1 83.154 53.711 Q 83.887 54.151 84.424 54.859 A 5.038 5.038 0 0 1 85.23 56.445 A 3.588 3.588 0 0 1 85.363 57.069 Q 85.385 57.252 85.385 57.43 A 2.773 2.773 0 0 1 85.303 58.106 A 45.032 45.032 0 0 1 84.286 61.314 A 54.887 54.887 0 0 1 83.521 63.33 Q 82.422 66.065 80.713 68.36 Q 79.004 70.654 76.611 72.168 A 9.747 9.747 0 0 1 72.579 73.584 A 12.5 12.5 0 0 1 70.996 73.682 A 9.008 9.008 0 0 1 69.11 73.493 A 7.085 7.085 0 0 1 67.456 72.925 A 8.284 8.284 0 0 1 64.819 70.899 A 8.498 8.498 0 0 1 63.269 68.237 A 9.807 9.807 0 0 1 63.159 67.92 A 11.467 11.467 0 0 1 62.598 64.426 A 12.854 12.854 0 0 1 62.598 64.307 L 62.598 43.994 A 49.908 49.908 0 0 0 62.579 42.587 A 40.874 40.874 0 0 0 62.549 41.797 Q 62.504 40.853 62.314 40.116 A 5.873 5.873 0 0 0 62.28 39.99 A 3.994 3.994 0 0 0 62.072 39.413 Q 61.894 39.023 61.646 38.745 A 1.36 1.36 0 0 0 60.845 38.31 A 1.98 1.98 0 0 0 60.498 38.281 A 2.087 2.087 0 0 0 59.75 38.435 Q 59.104 38.684 58.324 39.336 A 10.781 10.781 0 0 0 57.861 39.746 Q 56.519 41.005 55.212 42.913 A 28.482 28.482 0 0 0 54.785 43.555 A 27.411 27.411 0 0 0 52.956 46.894 A 33.295 33.295 0 0 0 52.124 48.853 Q 50.977 51.807 50.684 54.785 L 50.684 69.385 A 46.198 46.198 0 0 1 50.659 70.874 A 3.999 3.999 0 0 1 50.555 71.679 A 3.308 3.308 0 0 1 50.366 72.241 A 2.526 2.526 0 0 1 49.536 73.267 Q 48.975 73.682 47.901 73.682 A 7.247 7.247 0 0 1 47.038 73.628 A 9.419 9.419 0 0 1 46.314 73.511 A 4.396 4.396 0 0 1 44.751 72.876 A 3.349 3.349 0 0 1 43.876 72.031 A 4.272 4.272 0 0 1 43.579 71.558 A 3.401 3.401 0 0 1 43.279 70.771 Q 43.115 70.128 43.115 69.287 Z M 424.17 24.219 L 424.17 7.276 A 11.078 11.078 0 0 0 424.153 6.647 Q 424.117 6.003 423.999 5.567 Q 423.828 4.932 423.657 4.566 A 4.369 4.369 0 0 0 423.531 4.314 Q 423.423 4.118 423.316 3.98 Q 423.145 3.76 423.145 3.516 A 0.528 0.528 0 0 1 423.313 3.128 A 0.842 0.842 0 0 1 423.438 3.028 A 2.087 2.087 0 0 1 423.696 2.882 Q 423.833 2.817 423.997 2.758 A 4.467 4.467 0 0 1 424.219 2.686 A 6.352 6.352 0 0 1 424.959 2.513 A 7.455 7.455 0 0 1 425.269 2.466 A 8.491 8.491 0 0 1 426.367 2.393 A 7.767 7.767 0 0 1 427.955 2.546 Q 429.353 2.838 430.298 3.687 Q 431.738 4.981 431.738 6.787 L 431.738 24.317 A 468.546 468.546 0 0 0 436.456 24.292 A 549.31 549.31 0 0 0 441.431 24.219 A 359.799 359.799 0 0 0 451.66 23.877 Q 452.344 23.145 452.759 23.34 A 0.761 0.761 0 0 1 453.075 23.627 Q 453.229 23.867 453.296 24.268 Q 453.391 24.837 453.353 25.614 A 11.061 11.061 0 0 1 453.32 26.074 Q 453.223 27.149 452.93 28.15 A 6.581 6.581 0 0 1 452.557 29.137 A 5.213 5.213 0 0 1 452.124 29.883 A 2.402 2.402 0 0 1 451.828 30.235 Q 451.644 30.413 451.445 30.508 A 1.075 1.075 0 0 1 450.977 30.615 Q 445.815 30.741 441.682 30.777 A 395.335 395.335 0 0 1 440.357 30.786 A 1816.67 1816.67 0 0 1 435.895 30.805 A 1468.711 1468.711 0 0 1 431.738 30.811 L 431.738 62.5 A 10.16 10.16 0 0 0 431.808 63.733 Q 431.968 65.039 432.498 65.799 A 2.648 2.648 0 0 0 432.666 66.016 A 3.048 3.048 0 0 0 434.816 67.077 A 4.255 4.255 0 0 0 435.156 67.09 A 3.608 3.608 0 0 0 437.767 66.018 A 3.956 3.956 0 0 0 437.769 66.016 A 9.029 9.029 0 0 0 438.999 64.507 A 11.572 11.572 0 0 0 439.673 63.33 Q 440.479 61.719 440.991 59.839 A 64.145 64.145 0 0 0 441.461 58.014 A 52.046 52.046 0 0 0 441.846 56.299 A 7.498 7.498 0 0 1 442.054 55.447 Q 442.342 54.526 442.822 54.028 A 2.944 2.944 0 0 1 443.254 53.655 Q 443.536 53.459 443.825 53.378 A 1.523 1.523 0 0 1 444.238 53.32 A 2.11 2.11 0 0 1 444.908 53.435 Q 445.162 53.519 445.424 53.667 A 3.621 3.621 0 0 1 445.459 53.687 A 4.501 4.501 0 0 1 446.542 54.566 A 5.073 5.073 0 0 1 446.607 54.639 A 5.018 5.018 0 0 1 447.437 55.957 A 3.825 3.825 0 0 1 447.72 56.941 A 3.41 3.41 0 0 1 447.754 57.422 L 447.754 57.666 Q 447.754 57.786 447.689 58.003 A 3.526 3.526 0 0 1 447.656 58.106 A 38.593 38.593 0 0 1 446.682 61.314 A 47.401 47.401 0 0 1 445.923 63.33 A 21.764 21.764 0 0 1 443.091 68.36 Q 441.358 70.654 438.965 72.168 A 9.747 9.747 0 0 1 434.933 73.584 A 12.5 12.5 0 0 1 433.35 73.682 A 11.473 11.473 0 0 1 430.971 73.443 A 9.769 9.769 0 0 1 429.663 73.071 A 7.179 7.179 0 0 1 426.758 71.118 A 8.21 8.21 0 0 1 425.555 69.368 A 11.164 11.164 0 0 1 424.854 67.676 A 12.808 12.808 0 0 1 424.386 65.671 Q 424.231 64.666 424.187 63.518 A 24.191 24.191 0 0 1 424.17 62.598 L 424.17 30.811 Q 422.743 30.811 421.587 30.793 A 113.451 113.451 0 0 1 421.216 30.786 A 91.873 91.873 0 0 1 420.595 30.773 Q 419.702 30.75 419.043 30.713 A 154.53 154.53 0 0 1 418.193 30.67 Q 417.805 30.65 417.461 30.629 A 85.86 85.86 0 0 1 417.236 30.615 A 2.491 2.491 0 0 1 415.63 30.025 A 3.677 3.677 0 0 1 415.161 29.566 A 6.133 6.133 0 0 1 413.892 27.246 A 5.547 5.547 0 0 1 413.722 26.451 Q 413.68 26.146 413.68 25.855 A 3.729 3.729 0 0 1 413.794 24.927 Q 414.028 24.011 414.876 23.894 A 1.911 1.911 0 0 1 415.137 23.877 Q 416.26 23.975 417.627 24.024 A 30.374 30.374 0 0 0 418.575 24.087 Q 419.422 24.13 420.459 24.146 Q 422.119 24.17 424.17 24.219 Z M 496.192 69.287 L 496.192 37.598 A 14.721 14.721 0 0 0 496.178 36.939 Q 496.137 36.023 495.972 35.547 A 4.357 4.357 0 0 1 495.818 34.992 Q 495.752 34.669 495.752 34.375 A 1.229 1.229 0 0 1 496.164 33.453 A 2.074 2.074 0 0 1 496.533 33.179 A 3.266 3.266 0 0 1 497.681 32.77 A 4.349 4.349 0 0 1 498.389 32.715 A 7.767 7.767 0 0 1 499.977 32.868 Q 501.374 33.16 502.319 34.009 Q 503.76 35.303 503.76 37.11 L 503.76 41.602 A 35.178 35.178 0 0 1 505.539 38.383 A 31.477 31.477 0 0 1 505.982 37.695 A 19.837 19.837 0 0 1 507.636 35.524 A 16.764 16.764 0 0 1 508.569 34.546 A 11.826 11.826 0 0 1 510.569 32.98 A 10.346 10.346 0 0 1 511.548 32.446 Q 513.135 31.69 514.99 31.69 Q 516.994 31.69 518.429 32.29 A 5.872 5.872 0 0 1 519.092 32.617 A 7.439 7.439 0 0 1 520.984 34.147 A 6.862 6.862 0 0 1 521.631 35.01 A 9.567 9.567 0 0 1 522.877 38.057 A 10.871 10.871 0 0 1 522.925 38.281 A 18.056 18.056 0 0 1 523.278 41.153 A 16.219 16.219 0 0 1 523.291 41.797 L 523.291 62.5 A 7.283 7.283 0 0 0 523.294 62.697 Q 523.303 63.015 523.336 63.543 A 50.9 50.9 0 0 0 523.34 63.599 A 6.445 6.445 0 0 0 523.561 64.893 A 7.31 7.31 0 0 0 523.633 65.137 A 3.746 3.746 0 0 0 524.39 66.504 A 1.652 1.652 0 0 0 525.262 67.021 Q 525.535 67.088 525.858 67.09 A 3.231 3.231 0 0 0 525.879 67.09 A 3.608 3.608 0 0 0 528.489 66.018 A 3.956 3.956 0 0 0 528.491 66.016 A 9.029 9.029 0 0 0 529.722 64.507 A 11.572 11.572 0 0 0 530.396 63.33 Q 531.201 61.719 531.714 59.839 A 64.145 64.145 0 0 0 532.184 58.014 A 52.046 52.046 0 0 0 532.568 56.299 A 7.498 7.498 0 0 1 532.777 55.447 Q 533.064 54.526 533.545 54.028 A 2.944 2.944 0 0 1 533.977 53.655 Q 534.259 53.459 534.548 53.378 A 1.523 1.523 0 0 1 534.961 53.32 A 2.11 2.11 0 0 1 535.631 53.435 Q 535.885 53.519 536.147 53.667 A 3.621 3.621 0 0 1 536.182 53.687 A 4.501 4.501 0 0 1 537.265 54.566 A 5.073 5.073 0 0 1 537.329 54.639 A 5.018 5.018 0 0 1 538.159 55.957 A 3.825 3.825 0 0 1 538.443 56.941 A 3.41 3.41 0 0 1 538.477 57.422 L 538.477 57.666 Q 538.477 57.786 538.412 58.003 A 3.526 3.526 0 0 1 538.379 58.106 A 38.593 38.593 0 0 1 537.404 61.314 A 47.401 47.401 0 0 1 536.646 63.33 A 21.764 21.764 0 0 1 533.814 68.36 Q 532.08 70.654 529.688 72.168 A 9.747 9.747 0 0 1 525.655 73.584 A 12.5 12.5 0 0 1 524.072 73.682 A 9.008 9.008 0 0 1 522.186 73.493 A 7.085 7.085 0 0 1 520.532 72.925 A 8.284 8.284 0 0 1 517.896 70.899 A 8.498 8.498 0 0 1 516.345 68.237 A 9.807 9.807 0 0 1 516.235 67.92 A 11.467 11.467 0 0 1 515.675 64.426 A 12.854 12.854 0 0 1 515.674 64.307 L 515.674 43.994 A 49.908 49.908 0 0 0 515.655 42.587 A 40.874 40.874 0 0 0 515.625 41.797 Q 515.58 40.853 515.39 40.116 A 5.873 5.873 0 0 0 515.357 39.99 A 3.994 3.994 0 0 0 515.148 39.413 Q 514.97 39.023 514.722 38.745 A 1.36 1.36 0 0 0 513.921 38.31 A 1.98 1.98 0 0 0 513.574 38.281 A 2.087 2.087 0 0 0 512.826 38.435 Q 512.18 38.684 511.4 39.336 A 10.781 10.781 0 0 0 510.938 39.746 Q 509.595 41.005 508.288 42.913 A 28.482 28.482 0 0 0 507.861 43.555 A 27.411 27.411 0 0 0 506.032 46.894 A 33.295 33.295 0 0 0 505.2 48.853 Q 504.053 51.807 503.76 54.785 L 503.76 69.385 A 46.198 46.198 0 0 1 503.735 70.874 A 3.999 3.999 0 0 1 503.631 71.679 A 3.308 3.308 0 0 1 503.443 72.241 A 2.526 2.526 0 0 1 502.612 73.267 Q 502.051 73.682 500.977 73.682 A 7.247 7.247 0 0 1 500.114 73.628 A 9.419 9.419 0 0 1 499.39 73.511 A 4.396 4.396 0 0 1 497.827 72.876 A 3.349 3.349 0 0 1 496.952 72.031 A 4.272 4.272 0 0 1 496.655 71.558 A 3.401 3.401 0 0 1 496.355 70.771 Q 496.192 70.128 496.192 69.287 Z M 147.022 61.914 L 147.022 46.485 A 12.167 12.167 0 0 0 147.012 45.99 Q 147.003 45.757 146.984 45.557 A 5.43 5.43 0 0 0 146.948 45.264 A 18.922 18.922 0 0 0 146.893 44.918 Q 146.865 44.749 146.836 44.602 A 9.162 9.162 0 0 0 146.802 44.434 A 24.719 24.719 0 0 1 146.742 44.149 Q 146.716 44.018 146.694 43.9 A 14.469 14.469 0 0 1 146.68 43.823 A 3.031 3.031 0 0 1 146.636 43.474 A 2.568 2.568 0 0 1 146.631 43.311 A 1.335 1.335 0 0 1 147.126 42.255 A 2.037 2.037 0 0 1 147.388 42.066 A 3.073 3.073 0 0 1 148.428 41.673 A 4.219 4.219 0 0 1 149.219 41.602 A 7.758 7.758 0 0 1 150.86 41.765 Q 151.93 41.997 152.741 42.557 A 4.619 4.619 0 0 1 153.174 42.896 A 4.57 4.57 0 0 1 154.143 44.067 A 3.853 3.853 0 0 1 154.639 45.996 L 154.639 62.5 A 6.918 6.918 0 0 0 154.834 64.136 A 5.455 5.455 0 0 0 155.248 65.284 A 4.909 4.909 0 0 0 155.42 65.601 A 3.155 3.155 0 0 0 156.47 66.675 A 2.698 2.698 0 0 0 157.608 67.067 A 3.424 3.424 0 0 0 158.008 67.09 A 3.608 3.608 0 0 0 160.618 66.018 A 3.956 3.956 0 0 0 160.62 66.016 A 9.029 9.029 0 0 0 161.85 64.507 A 11.572 11.572 0 0 0 162.525 63.33 Q 163.33 61.719 163.843 59.839 A 64.145 64.145 0 0 0 164.313 58.014 A 52.046 52.046 0 0 0 164.697 56.299 A 8.347 8.347 0 0 1 164.928 55.447 Q 165.235 54.526 165.698 54.028 A 2.624 2.624 0 0 1 166.166 53.625 A 1.732 1.732 0 0 1 167.139 53.32 A 2.059 2.059 0 0 1 167.843 53.45 A 2.834 2.834 0 0 1 168.335 53.687 A 4.596 4.596 0 0 1 169.254 54.418 A 5.355 5.355 0 0 1 169.458 54.639 A 5.018 5.018 0 0 1 170.288 55.957 A 3.825 3.825 0 0 1 170.571 56.941 A 3.41 3.41 0 0 1 170.606 57.422 L 170.606 57.666 Q 170.606 57.786 170.54 58.003 A 3.526 3.526 0 0 1 170.508 58.106 A 38.593 38.593 0 0 1 169.533 61.314 A 47.401 47.401 0 0 1 168.775 63.33 Q 167.676 66.065 165.967 68.36 Q 164.258 70.654 161.841 72.168 A 9.9 9.9 0 0 1 157.762 73.587 A 12.554 12.554 0 0 1 156.201 73.682 A 10.458 10.458 0 0 1 153.88 73.435 A 8.139 8.139 0 0 1 151.611 72.559 A 8.444 8.444 0 0 1 148.535 69.58 A 13.841 13.841 0 0 1 145.226 72.295 A 15.717 15.717 0 0 1 144.898 72.486 A 9.229 9.229 0 0 1 141.663 73.562 A 11.978 11.978 0 0 1 139.942 73.682 A 12.417 12.417 0 0 1 137.229 73.398 A 9.765 9.765 0 0 1 134.79 72.51 Q 132.568 71.338 131.055 69.312 A 13.399 13.399 0 0 1 129.3 66.1 A 16.428 16.428 0 0 1 128.784 64.527 A 21.456 21.456 0 0 1 128.078 60.203 A 25.337 25.337 0 0 1 128.027 58.594 A 33.501 33.501 0 0 1 128.592 52.314 A 26.596 26.596 0 0 1 130.029 47.363 A 28.213 28.213 0 0 1 133.025 41.751 A 24.152 24.152 0 0 1 135.352 38.892 Q 138.672 35.401 142.944 33.545 Q 147.217 31.69 151.807 31.69 A 6.098 6.098 0 0 1 153.262 31.854 A 4.319 4.319 0 0 1 155.127 32.813 A 3.691 3.691 0 0 1 156.344 35.129 A 5.306 5.306 0 0 1 156.397 35.889 A 9.513 9.513 0 0 1 156.38 36.476 Q 156.345 37.037 156.238 37.394 A 1.575 1.575 0 0 1 156.128 37.671 Q 155.861 38.181 155.134 38.184 A 2.078 2.078 0 0 1 155.127 38.184 A 10.483 10.483 0 0 1 153.984 38.119 A 11.809 11.809 0 0 1 153.711 38.086 A 11.415 11.415 0 0 0 152.246 37.989 A 12.433 12.433 0 0 0 152.197 37.988 A 13.969 13.969 0 0 0 147.985 38.66 A 17.071 17.071 0 0 0 146.436 39.234 A 14.965 14.965 0 0 0 142.046 42.127 A 17.807 17.807 0 0 0 141.138 43.042 A 17.756 17.756 0 0 0 138.744 46.359 A 23.778 23.778 0 0 0 137.256 49.536 A 21.404 21.404 0 0 0 136.145 53.694 Q 135.818 55.642 135.756 57.853 A 37.298 37.298 0 0 0 135.742 58.887 A 16.6 16.6 0 0 0 135.89 61.18 Q 136.215 63.506 137.256 64.966 A 5.076 5.076 0 0 0 138.858 66.455 Q 139.964 67.09 141.406 67.09 A 4.361 4.361 0 0 0 144.651 65.738 A 5.357 5.357 0 0 0 144.824 65.552 A 11.772 11.772 0 0 0 146.662 62.744 A 13.842 13.842 0 0 0 147.022 61.914 Z M 321.139 53.598 A 1.386 1.386 0 0 0 320.703 54.395 A 13.029 13.029 0 0 1 319.922 57.178 A 8.829 8.829 0 0 1 319.746 57.582 A 7.63 7.63 0 0 1 318.506 59.473 A 6.604 6.604 0 0 1 316.382 61.035 A 5.921 5.921 0 0 1 315.045 61.475 A 7.554 7.554 0 0 1 313.526 61.621 A 21.296 21.296 0 0 1 313.007 61.615 A 17.13 17.13 0 0 1 312.525 61.597 Q 312.061 61.572 311.524 61.377 Q 312.256 58.838 312.598 56.104 A 44.441 44.441 0 0 0 312.94 50.586 A 36.464 36.464 0 0 0 312.847 47.952 A 29.532 29.532 0 0 0 312.28 43.897 Q 311.621 40.82 310.449 38.574 A 15.843 15.843 0 0 0 310.362 38.408 Q 309.84 37.438 309.244 36.655 A 9.338 9.338 0 0 0 307.715 35.059 A 6.565 6.565 0 0 0 306.972 34.533 A 4.91 4.91 0 0 0 304.395 33.789 A 7.8 7.8 0 0 0 303.542 33.835 A 6.203 6.203 0 0 0 300.879 34.741 A 7.621 7.621 0 0 0 300.318 35.13 A 8.018 8.018 0 0 0 298.364 37.305 A 11.276 11.276 0 0 0 297.582 38.813 A 13.938 13.938 0 0 0 296.851 41.04 A 17.589 17.589 0 0 0 296.676 41.844 A 19.356 19.356 0 0 0 296.338 45.508 A 31.181 31.181 0 0 0 296.374 47.017 A 26.85 26.85 0 0 0 298.169 55.591 A 22.426 22.426 0 0 0 298.653 56.731 A 18.891 18.891 0 0 0 303.516 63.281 A 10.455 10.455 0 0 1 302.934 64.191 A 8.505 8.505 0 0 1 301.148 66.04 A 5.048 5.048 0 0 1 299.171 66.93 A 7.227 7.227 0 0 1 297.608 67.09 Q 296.143 67.09 294.849 66.309 A 5.446 5.446 0 0 1 294.803 66.281 Q 294.098 65.846 293.481 65.17 A 8.704 8.704 0 0 1 292.554 63.941 A 9.403 9.403 0 0 1 292.346 63.595 Q 291.907 62.828 291.561 61.9 A 16.219 16.219 0 0 1 290.991 60.01 Q 290.667 58.655 290.53 57.023 A 30.321 30.321 0 0 1 290.43 54.492 A 51.134 51.134 0 0 1 290.454 52.893 Q 290.539 50.194 290.918 48.145 Q 291.208 46.579 291.575 45.298 A 19.087 19.087 0 0 1 292.114 43.677 Q 292.514 42.643 292.945 41.804 A 12.531 12.531 0 0 1 293.628 40.625 Q 294.132 39.862 294.549 39.214 A 98.358 98.358 0 0 0 295.02 38.477 A 2.542 2.542 0 0 0 295.795 37.708 A 2.614 2.614 0 0 0 296.167 36.67 A 5.144 5.144 0 0 0 296.221 35.927 A 5.156 5.156 0 0 0 295.972 34.351 Q 295.606 33.203 294.8 32.349 A 3.25 3.25 0 0 0 294.32 31.926 A 2.207 2.207 0 0 0 293.018 31.494 Q 292.188 31.494 290.503 33.106 Q 289.398 34.163 288.282 35.841 A 29.591 29.591 0 0 0 287.109 37.769 A 25.403 25.403 0 0 0 286.746 38.441 Q 285.261 41.291 284.107 45.191 A 30.187 30.187 0 0 0 283.136 49.848 A 40.338 40.338 0 0 0 282.813 55.078 A 32.304 32.304 0 0 0 282.833 56.244 A 28.357 28.357 0 0 0 283.667 62.207 A 20.436 20.436 0 0 0 284.12 63.742 A 17.12 17.12 0 0 0 286.328 68.14 A 13.229 13.229 0 0 0 290.869 72.193 A 11.832 11.832 0 0 0 294.285 73.397 A 16.318 16.318 0 0 0 297.412 73.682 A 15.722 15.722 0 0 0 300.472 73.398 A 11.28 11.28 0 0 0 304.639 71.704 A 15.487 15.487 0 0 0 309.424 66.504 Q 310.547 66.895 311.743 67.041 A 18.77 18.77 0 0 0 312.665 67.13 A 22.685 22.685 0 0 0 314.307 67.188 A 14.965 14.965 0 0 0 316.032 67.091 A 11.855 11.855 0 0 0 318.897 66.406 Q 320.947 65.625 322.461 64.258 Q 323.975 62.891 324.976 61.109 A 13.596 13.596 0 0 0 326.416 57.276 A 8.515 8.515 0 0 0 326.466 57.056 Q 326.66 56.148 326.588 55.463 A 2.808 2.808 0 0 0 326.489 54.956 A 3.522 3.522 0 0 0 326.273 54.399 A 2.619 2.619 0 0 0 325.61 53.54 A 2.995 2.995 0 0 0 324.194 52.881 Q 323.389 52.735 322.656 52.881 Q 321.924 53.028 321.362 53.418 A 1.945 1.945 0 0 0 321.139 53.598 Z M 496.578 53.598 A 1.386 1.386 0 0 0 496.143 54.395 A 13.029 13.029 0 0 1 495.361 57.178 A 8.829 8.829 0 0 1 495.185 57.582 A 7.63 7.63 0 0 1 493.945 59.473 A 6.604 6.604 0 0 1 491.821 61.035 A 5.921 5.921 0 0 1 490.485 61.475 A 7.554 7.554 0 0 1 488.965 61.621 A 21.296 21.296 0 0 1 488.446 61.615 A 17.13 17.13 0 0 1 487.964 61.597 Q 487.5 61.572 486.963 61.377 Q 487.695 58.838 488.037 56.104 A 44.441 44.441 0 0 0 488.379 50.586 A 36.464 36.464 0 0 0 488.286 47.952 A 29.532 29.532 0 0 0 487.72 43.897 Q 487.061 40.82 485.889 38.574 A 15.843 15.843 0 0 0 485.801 38.408 Q 485.28 37.438 484.683 36.655 A 9.338 9.338 0 0 0 483.154 35.059 A 6.565 6.565 0 0 0 482.411 34.533 A 4.91 4.91 0 0 0 479.834 33.789 A 7.8 7.8 0 0 0 478.982 33.835 A 6.203 6.203 0 0 0 476.318 34.741 A 7.621 7.621 0 0 0 475.758 35.13 A 8.018 8.018 0 0 0 473.804 37.305 A 11.276 11.276 0 0 0 473.021 38.813 A 13.938 13.938 0 0 0 472.29 41.04 A 17.589 17.589 0 0 0 472.116 41.844 A 19.356 19.356 0 0 0 471.777 45.508 A 31.181 31.181 0 0 0 471.814 47.017 A 26.85 26.85 0 0 0 473.609 55.591 A 22.426 22.426 0 0 0 474.093 56.731 A 18.891 18.891 0 0 0 478.955 63.281 A 10.455 10.455 0 0 1 478.373 64.191 A 8.505 8.505 0 0 1 476.587 66.04 A 5.048 5.048 0 0 1 474.61 66.93 A 7.227 7.227 0 0 1 473.047 67.09 Q 471.582 67.09 470.288 66.309 A 5.446 5.446 0 0 1 470.243 66.281 Q 469.538 65.846 468.921 65.17 A 8.704 8.704 0 0 1 467.993 63.941 A 9.403 9.403 0 0 1 467.786 63.595 Q 467.346 62.828 467 61.9 A 16.219 16.219 0 0 1 466.431 60.01 Q 466.106 58.655 465.969 57.023 A 30.321 30.321 0 0 1 465.869 54.492 A 51.134 51.134 0 0 1 465.893 52.893 Q 465.978 50.194 466.358 48.145 Q 466.647 46.579 467.015 45.298 A 19.087 19.087 0 0 1 467.554 43.677 Q 467.953 42.643 468.384 41.804 A 12.531 12.531 0 0 1 469.068 40.625 Q 469.571 39.862 469.989 39.214 A 98.358 98.358 0 0 0 470.459 38.477 A 2.542 2.542 0 0 0 471.234 37.708 A 2.614 2.614 0 0 0 471.607 36.67 A 5.144 5.144 0 0 0 471.661 35.927 A 5.156 5.156 0 0 0 471.411 34.351 Q 471.045 33.203 470.239 32.349 A 3.25 3.25 0 0 0 469.759 31.926 A 2.207 2.207 0 0 0 468.457 31.494 Q 467.627 31.494 465.943 33.106 Q 464.837 34.163 463.721 35.841 A 29.591 29.591 0 0 0 462.549 37.769 A 25.403 25.403 0 0 0 462.186 38.441 Q 460.701 41.291 459.546 45.191 A 30.187 30.187 0 0 0 458.576 49.848 A 40.338 40.338 0 0 0 458.252 55.078 A 32.304 32.304 0 0 0 458.273 56.244 A 28.357 28.357 0 0 0 459.107 62.207 A 20.436 20.436 0 0 0 459.559 63.742 A 17.12 17.12 0 0 0 461.768 68.14 A 13.229 13.229 0 0 0 466.309 72.193 A 11.832 11.832 0 0 0 469.725 73.397 A 16.318 16.318 0 0 0 472.852 73.682 A 15.722 15.722 0 0 0 475.912 73.398 A 11.28 11.28 0 0 0 480.078 71.704 A 15.487 15.487 0 0 0 484.863 66.504 Q 485.986 66.895 487.183 67.041 A 18.77 18.77 0 0 0 488.104 67.13 A 22.685 22.685 0 0 0 489.746 67.188 A 14.965 14.965 0 0 0 491.471 67.091 A 11.855 11.855 0 0 0 494.336 66.406 Q 496.387 65.625 497.901 64.258 Q 499.414 62.891 500.415 61.109 A 13.596 13.596 0 0 0 501.856 57.276 A 8.515 8.515 0 0 0 501.906 57.056 Q 502.1 56.148 502.027 55.463 A 2.808 2.808 0 0 0 501.929 54.956 A 3.522 3.522 0 0 0 501.713 54.399 A 2.619 2.619 0 0 0 501.05 53.54 A 2.995 2.995 0 0 0 499.634 52.881 Q 498.828 52.735 498.096 52.881 Q 497.363 53.028 496.802 53.418 A 1.945 1.945 0 0 0 496.578 53.598 Z M 320.752 60.498 L 320.752 14.99 A 19.189 19.189 0 0 1 321.029 11.674 A 16.114 16.114 0 0 1 321.46 9.839 A 14.792 14.792 0 0 1 322.333 7.579 A 11.501 11.501 0 0 1 323.413 5.786 A 9.948 9.948 0 0 1 325.226 3.891 A 8.799 8.799 0 0 1 326.318 3.15 A 6.958 6.958 0 0 1 329.834 2.197 A 9.956 9.956 0 0 1 331.507 2.33 Q 332.646 2.525 333.545 3.003 A 7.343 7.343 0 0 1 336.035 5.127 Q 337.012 6.445 337.573 8.154 A 19.747 19.747 0 0 1 338.379 11.646 A 32.672 32.672 0 0 1 338.672 15.161 A 130.92 130.92 0 0 1 338.709 16.815 A 96.668 96.668 0 0 1 338.721 18.311 A 43.699 43.699 0 0 1 338.398 23.519 A 51.625 51.625 0 0 1 338.037 26.001 Q 337.354 30.029 336.304 33.936 A 111.156 111.156 0 0 1 334.317 40.529 A 101.185 101.185 0 0 1 334.009 41.431 A 144.439 144.439 0 0 1 332.863 44.618 Q 332.306 46.111 331.769 47.43 A 85.8 85.8 0 0 1 331.616 47.803 A 96.102 96.102 0 0 1 331.058 49.13 Q 330.297 50.9 329.656 52.166 A 32.272 32.272 0 0 1 329.566 52.344 A 36.414 36.414 0 0 1 329.247 52.952 Q 328.598 54.157 328.32 54.395 L 328.32 60.205 Q 328.32 62.729 329.203 64.49 A 6.6 6.6 0 0 0 329.59 65.161 A 4.123 4.123 0 0 0 332.346 66.969 A 6.597 6.597 0 0 0 333.643 67.09 A 5.405 5.405 0 0 0 336.677 66.152 A 6.618 6.618 0 0 0 336.841 66.04 Q 338.33 64.99 339.478 63.403 A 17.073 17.073 0 0 0 341.406 59.937 A 22.468 22.468 0 0 0 342.078 58.112 A 17.051 17.051 0 0 0 342.529 56.397 A 7.618 7.618 0 0 1 342.731 55.598 Q 342.984 54.797 343.373 54.34 A 2.135 2.135 0 0 1 343.433 54.273 Q 343.976 53.686 344.596 53.563 A 1.701 1.701 0 0 1 344.751 53.54 A 2.068 2.068 0 0 1 344.964 53.529 Q 345.569 53.529 346.192 53.882 Q 346.924 54.297 347.461 54.981 A 4.792 4.792 0 0 1 348.267 56.519 A 3.301 3.301 0 0 1 348.419 57.363 Q 348.422 57.432 348.422 57.5 A 3.061 3.061 0 0 1 348.34 58.203 Q 347.817 59.736 346.95 61.669 A 66.898 66.898 0 0 1 346.387 62.891 Q 345.117 65.576 343.164 67.969 Q 341.211 70.361 338.574 72.022 A 10.841 10.841 0 0 1 333.569 73.641 A 13.367 13.367 0 0 1 332.52 73.682 A 14.849 14.849 0 0 1 329.969 73.473 A 11.149 11.149 0 0 1 327.442 72.73 A 10.051 10.051 0 0 1 323.755 70.044 A 11.191 11.191 0 0 1 321.877 66.923 A 13.454 13.454 0 0 1 321.509 65.894 A 16.316 16.316 0 0 1 320.877 62.826 A 20.952 20.952 0 0 1 320.752 60.498 Z M 342.774 60.498 L 342.774 14.99 A 19.189 19.189 0 0 1 343.05 11.674 A 16.114 16.114 0 0 1 343.482 9.839 A 14.792 14.792 0 0 1 344.355 7.579 A 11.501 11.501 0 0 1 345.435 5.786 A 9.948 9.948 0 0 1 347.248 3.891 A 8.799 8.799 0 0 1 348.34 3.15 A 6.958 6.958 0 0 1 351.856 2.197 A 9.956 9.956 0 0 1 353.528 2.33 Q 354.668 2.525 355.567 3.003 A 7.343 7.343 0 0 1 358.057 5.127 Q 359.033 6.445 359.595 8.154 A 19.747 19.747 0 0 1 360.401 11.646 A 32.672 32.672 0 0 1 360.693 15.161 A 130.92 130.92 0 0 1 360.73 16.815 A 96.668 96.668 0 0 1 360.742 18.311 A 43.699 43.699 0 0 1 360.419 23.519 A 51.625 51.625 0 0 1 360.059 26.001 Q 359.375 30.029 358.325 33.936 A 111.156 111.156 0 0 1 356.339 40.529 A 101.185 101.185 0 0 1 356.03 41.431 A 144.439 144.439 0 0 1 354.885 44.618 Q 354.327 46.111 353.791 47.43 A 85.8 85.8 0 0 1 353.638 47.803 A 96.102 96.102 0 0 1 353.079 49.13 Q 352.319 50.9 351.678 52.166 A 32.272 32.272 0 0 1 351.587 52.344 A 36.414 36.414 0 0 1 351.268 52.952 Q 350.62 54.157 350.342 54.395 L 350.342 60.205 Q 350.342 62.729 351.224 64.49 A 6.6 6.6 0 0 0 351.611 65.161 A 4.123 4.123 0 0 0 354.367 66.969 A 6.597 6.597 0 0 0 355.664 67.09 A 5.405 5.405 0 0 0 358.699 66.152 A 6.618 6.618 0 0 0 358.862 66.04 Q 360.352 64.99 361.499 63.403 A 17.073 17.073 0 0 0 363.428 59.937 A 22.468 22.468 0 0 0 364.099 58.112 A 17.051 17.051 0 0 0 364.551 56.397 A 7.618 7.618 0 0 1 364.753 55.598 Q 365.006 54.797 365.395 54.34 A 2.135 2.135 0 0 1 365.454 54.273 Q 365.997 53.686 366.618 53.563 A 1.701 1.701 0 0 1 366.773 53.54 A 2.068 2.068 0 0 1 366.986 53.529 Q 367.59 53.529 368.213 53.882 Q 368.945 54.297 369.483 54.981 A 4.792 4.792 0 0 1 370.288 56.519 A 3.301 3.301 0 0 1 370.441 57.363 Q 370.444 57.432 370.444 57.5 A 3.061 3.061 0 0 1 370.361 58.203 Q 369.838 59.736 368.971 61.669 A 66.898 66.898 0 0 1 368.408 62.891 Q 367.139 65.576 365.186 67.969 Q 363.233 70.361 360.596 72.022 A 10.841 10.841 0 0 1 355.59 73.641 A 13.367 13.367 0 0 1 354.541 73.682 A 14.849 14.849 0 0 1 351.991 73.473 A 11.149 11.149 0 0 1 349.463 72.73 A 10.051 10.051 0 0 1 345.776 70.044 A 11.191 11.191 0 0 1 343.898 66.923 A 13.454 13.454 0 0 1 343.53 65.894 A 16.316 16.316 0 0 1 342.898 62.826 A 20.952 20.952 0 0 1 342.774 60.498 Z M 263.965 72.461 A 17.566 17.566 0 0 0 270.41 73.682 A 24.946 24.946 0 0 0 273.564 73.491 A 18.423 18.423 0 0 0 276.929 72.754 A 21.412 21.412 0 0 0 278.809 72.047 A 17.364 17.364 0 0 0 281.934 70.313 A 18.768 18.768 0 0 0 282.525 69.879 A 16.429 16.429 0 0 0 285.571 66.87 A 25.479 25.479 0 0 0 286.198 66.023 A 22.125 22.125 0 0 0 288.037 62.94 A 24.08 24.08 0 0 0 288.497 61.942 A 20.678 20.678 0 0 0 289.526 58.985 Q 289.815 57.886 290.003 56.926 A 21.991 21.991 0 0 0 290.234 55.518 A 3.594 3.594 0 0 0 290.257 55.121 A 2.813 2.813 0 0 0 289.575 53.247 A 4.549 4.549 0 0 0 289.34 52.989 A 3.632 3.632 0 0 0 287.671 52.002 Q 287.001 51.823 286.349 51.963 A 3.14 3.14 0 0 0 285.523 52.271 A 2.223 2.223 0 0 0 284.848 52.83 Q 284.347 53.441 284.131 54.492 A 23.406 23.406 0 0 1 282.764 59.033 A 15.45 15.45 0 0 1 280.322 63.086 Q 278.809 64.893 276.636 65.991 Q 274.463 67.09 271.533 67.09 A 11.73 11.73 0 0 1 271.09 67.082 A 10.113 10.113 0 0 1 267.456 66.284 A 8.954 8.954 0 0 1 264.209 63.916 Q 262.842 62.354 262.085 60.059 A 14.528 14.528 0 0 1 261.495 57.427 A 19.987 19.987 0 0 1 261.328 54.785 A 35.539 35.539 0 0 1 261.371 53.023 A 30.31 30.31 0 0 1 261.939 48.438 Q 262.244 46.948 262.647 45.642 A 21.623 21.623 0 0 1 263.55 43.213 A 17.166 17.166 0 0 1 263.874 42.526 Q 264.756 40.762 265.845 39.673 A 6.405 6.405 0 0 1 266.134 39.401 Q 266.569 39.017 267.012 38.777 A 3.108 3.108 0 0 1 268.506 38.379 A 4.905 4.905 0 0 1 268.796 38.387 Q 269.22 38.413 269.578 38.513 A 2.479 2.479 0 0 1 270.508 38.989 Q 271.24 39.6 271.655 40.454 A 6.938 6.938 0 0 1 272.241 42.236 A 20.729 20.729 0 0 0 272.323 42.655 Q 272.392 42.991 272.464 43.282 A 10.067 10.067 0 0 0 272.608 43.799 A 2.969 2.969 0 0 0 272.581 44.001 Q 272.547 44.348 272.612 44.618 A 1.084 1.084 0 0 0 272.876 45.117 A 1.494 1.494 0 0 0 273.446 45.495 A 1.884 1.884 0 0 0 273.975 45.606 Q 274.658 45.654 275.537 45.386 A 5.346 5.346 0 0 0 277.149 44.58 Q 277.881 44.043 278.394 43.262 A 3.133 3.133 0 0 0 278.906 41.504 Q 278.906 40.68 278.706 39.704 A 14.226 14.226 0 0 0 278.394 38.477 Q 277.881 36.768 276.758 35.278 A 8.875 8.875 0 0 0 275.733 34.141 A 10.475 10.475 0 0 0 273.828 32.739 A 6.718 6.718 0 0 0 273.796 32.721 Q 272.763 32.128 271.478 31.876 A 10.62 10.62 0 0 0 269.434 31.69 A 11.598 11.598 0 0 0 262.866 33.692 A 17.316 17.316 0 0 0 261.245 34.916 A 19.04 19.04 0 0 0 257.715 38.941 A 24.734 24.734 0 0 0 256.348 41.28 A 28.804 28.804 0 0 0 254.346 46.338 Q 253.125 50.488 253.125 54.785 Q 253.125 59.424 254.566 62.94 A 20.382 20.382 0 0 0 255.347 64.627 A 16.81 16.81 0 0 0 258.423 68.848 A 16.164 16.164 0 0 0 263.965 72.461 Z M 404.004 72.461 A 17.566 17.566 0 0 0 410.449 73.682 A 24.946 24.946 0 0 0 413.603 73.491 A 18.423 18.423 0 0 0 416.968 72.754 A 21.412 21.412 0 0 0 418.848 72.047 A 17.364 17.364 0 0 0 421.973 70.313 A 18.768 18.768 0 0 0 422.564 69.879 A 16.429 16.429 0 0 0 425.61 66.87 A 25.479 25.479 0 0 0 426.237 66.023 A 22.125 22.125 0 0 0 428.076 62.94 A 24.08 24.08 0 0 0 428.536 61.942 A 20.678 20.678 0 0 0 429.566 58.985 Q 429.854 57.886 430.042 56.926 A 21.991 21.991 0 0 0 430.274 55.518 A 3.594 3.594 0 0 0 430.296 55.121 A 2.813 2.813 0 0 0 429.614 53.247 A 4.549 4.549 0 0 0 429.379 52.989 A 3.632 3.632 0 0 0 427.71 52.002 Q 427.04 51.823 426.388 51.963 A 3.14 3.14 0 0 0 425.562 52.271 A 2.223 2.223 0 0 0 424.887 52.83 Q 424.387 53.441 424.17 54.492 A 23.406 23.406 0 0 1 422.803 59.033 A 15.45 15.45 0 0 1 420.361 63.086 Q 418.848 64.893 416.675 65.991 Q 414.502 67.09 411.572 67.09 A 11.73 11.73 0 0 1 411.129 67.082 A 10.113 10.113 0 0 1 407.495 66.284 A 8.954 8.954 0 0 1 404.248 63.916 Q 402.881 62.354 402.124 60.059 A 14.528 14.528 0 0 1 401.534 57.427 A 19.987 19.987 0 0 1 401.367 54.785 A 35.539 35.539 0 0 1 401.41 53.023 A 30.31 30.31 0 0 1 401.978 48.438 Q 402.283 46.948 402.686 45.642 A 21.623 21.623 0 0 1 403.589 43.213 A 17.166 17.166 0 0 1 403.913 42.526 Q 404.795 40.762 405.884 39.673 A 6.405 6.405 0 0 1 406.173 39.401 Q 406.608 39.017 407.051 38.777 A 3.108 3.108 0 0 1 408.545 38.379 A 4.905 4.905 0 0 1 408.835 38.387 Q 409.259 38.413 409.617 38.513 A 2.479 2.479 0 0 1 410.547 38.989 Q 411.279 39.6 411.694 40.454 A 6.938 6.938 0 0 1 412.28 42.236 A 20.729 20.729 0 0 0 412.362 42.655 Q 412.431 42.991 412.504 43.282 A 10.067 10.067 0 0 0 412.647 43.799 A 2.969 2.969 0 0 0 412.62 44.001 Q 412.586 44.348 412.652 44.618 A 1.084 1.084 0 0 0 412.915 45.117 A 1.494 1.494 0 0 0 413.485 45.495 A 1.884 1.884 0 0 0 414.014 45.606 Q 414.697 45.654 415.576 45.386 A 5.346 5.346 0 0 0 417.188 44.58 Q 417.92 44.043 418.433 43.262 A 3.133 3.133 0 0 0 418.945 41.504 Q 418.945 40.68 418.745 39.704 A 14.226 14.226 0 0 0 418.433 38.477 Q 417.92 36.768 416.797 35.278 A 8.875 8.875 0 0 0 415.772 34.141 A 10.475 10.475 0 0 0 413.867 32.739 A 6.718 6.718 0 0 0 413.835 32.721 Q 412.802 32.128 411.517 31.876 A 10.62 10.62 0 0 0 409.473 31.69 A 11.598 11.598 0 0 0 402.905 33.692 A 17.316 17.316 0 0 0 401.284 34.916 A 19.04 19.04 0 0 0 397.754 38.941 A 24.734 24.734 0 0 0 396.387 41.28 A 28.804 28.804 0 0 0 394.385 46.338 Q 393.164 50.488 393.164 54.785 Q 393.164 59.424 394.605 62.94 A 20.382 20.382 0 0 0 395.386 64.627 A 16.81 16.81 0 0 0 398.462 68.848 A 16.164 16.164 0 0 0 404.004 72.461 Z M 97.217 63.916 L 97.217 37.598 A 14.721 14.721 0 0 0 97.203 36.939 Q 97.162 36.023 96.997 35.547 A 4.357 4.357 0 0 1 96.843 34.992 Q 96.777 34.669 96.777 34.375 A 1.229 1.229 0 0 1 97.19 33.453 A 2.074 2.074 0 0 1 97.559 33.179 A 3.266 3.266 0 0 1 98.706 32.77 A 4.349 4.349 0 0 1 99.414 32.715 A 7.767 7.767 0 0 1 101.002 32.868 Q 102.4 33.16 103.345 34.009 Q 104.785 35.303 104.785 37.11 L 104.785 64.014 Q 104.785 64.98 104.99 65.674 A 3.165 3.165 0 0 0 105.225 66.26 Q 105.609 66.987 106.668 67.077 A 3.697 3.697 0 0 0 106.983 67.09 A 6.014 6.014 0 0 0 109.282 66.616 A 8.36 8.36 0 0 0 110.718 65.845 Q 112.598 64.6 114.087 62.232 Q 115.576 59.863 116.528 56.445 A 25.116 25.116 0 0 0 117.271 52.552 A 34.163 34.163 0 0 0 117.481 48.682 A 32.747 32.747 0 0 0 117.421 46.638 Q 117.314 44.935 117.017 43.653 Q 116.553 41.651 115.918 40.405 A 9.415 9.415 0 0 0 115.473 39.622 Q 115.229 39.239 114.976 38.94 A 4.233 4.233 0 0 0 114.575 38.526 A 45.147 45.147 0 0 0 114.235 38.223 Q 113.745 37.793 113.379 37.5 A 1.916 1.916 0 0 0 112.5 37.134 A 0.831 0.831 0 0 1 112.298 37.079 Q 112.04 36.969 112.015 36.684 A 0.722 0.722 0 0 1 112.012 36.621 A 3.055 3.055 0 0 1 112.082 35.99 Q 112.144 35.697 112.261 35.378 A 5.892 5.892 0 0 1 112.378 35.083 A 7.362 7.362 0 0 1 113.33 33.472 A 6.174 6.174 0 0 1 114.401 32.386 A 5.669 5.669 0 0 1 114.649 32.202 A 3.148 3.148 0 0 1 115.244 31.87 A 2.251 2.251 0 0 1 116.113 31.69 A 3.457 3.457 0 0 1 117.591 32.039 Q 118.105 32.28 118.625 32.688 A 7.806 7.806 0 0 1 119.19 33.179 Q 120.752 34.668 122.046 37.11 Q 123.34 39.551 124.17 42.652 Q 125 45.752 125 48.975 A 33.613 33.613 0 0 1 124.199 56.407 A 30.26 30.26 0 0 1 123.633 58.545 A 27.058 27.058 0 0 1 121.476 63.722 A 23.051 23.051 0 0 1 119.751 66.406 A 18.797 18.797 0 0 1 113.672 71.729 A 16.005 16.005 0 0 1 106.799 73.651 A 19.109 19.109 0 0 1 105.713 73.682 A 12.191 12.191 0 0 1 103.959 73.563 Q 102.681 73.377 101.685 72.901 A 7.342 7.342 0 0 1 99.984 71.792 A 6.37 6.37 0 0 1 99.072 70.801 A 8.232 8.232 0 0 1 97.914 68.575 A 9.992 9.992 0 0 1 97.656 67.7 A 15.357 15.357 0 0 1 97.234 64.69 A 17.674 17.674 0 0 1 97.217 63.916 Z M 387.258 46.054 A 17.725 17.725 0 0 0 387.793 41.797 A 15.144 15.144 0 0 0 387.72 40.291 A 12.151 12.151 0 0 0 387.183 37.695 A 10.536 10.536 0 0 0 386.934 37.018 A 8.895 8.895 0 0 0 385.401 34.497 A 7.938 7.938 0 0 0 382.544 32.422 A 8.479 8.479 0 0 0 380.932 31.909 A 10.368 10.368 0 0 0 378.76 31.69 A 9.827 9.827 0 0 0 376.091 32.06 A 11.59 11.59 0 0 0 373.145 33.374 A 15.441 15.441 0 0 0 370.826 35.131 A 18.88 18.88 0 0 0 368.262 38.037 A 22.311 22.311 0 0 0 366.485 40.962 A 28.15 28.15 0 0 0 364.795 45.093 A 25.985 25.985 0 0 0 364.072 47.84 A 29.971 29.971 0 0 0 363.477 53.906 A 26.212 26.212 0 0 0 363.695 57.349 A 20.194 20.194 0 0 0 364.966 62.28 A 21.852 21.852 0 0 0 365.881 64.261 A 17.812 17.812 0 0 0 368.921 68.482 A 17.177 17.177 0 0 0 374.585 72.339 A 16.93 16.93 0 0 0 381.201 73.682 A 24.699 24.699 0 0 0 384.452 73.478 A 18.037 18.037 0 0 0 387.695 72.754 A 20.715 20.715 0 0 0 389.596 72.029 A 16.607 16.607 0 0 0 392.627 70.313 A 18.174 18.174 0 0 0 393.142 69.928 A 15.957 15.957 0 0 0 396.167 66.87 Q 397.608 64.942 398.535 62.94 A 23.367 23.367 0 0 0 398.97 61.942 A 20.166 20.166 0 0 0 399.927 58.985 Q 400.188 57.886 400.364 56.926 A 26.974 26.974 0 0 0 400.586 55.518 A 3.594 3.594 0 0 0 400.609 55.121 A 2.813 2.813 0 0 0 399.927 53.247 A 4.549 4.549 0 0 0 399.691 52.989 A 3.632 3.632 0 0 0 398.023 52.002 Q 397.353 51.823 396.701 51.963 A 3.14 3.14 0 0 0 395.874 52.271 A 2.223 2.223 0 0 0 395.2 52.83 Q 394.699 53.441 394.483 54.492 Q 394.043 56.787 393.164 59.033 A 15.536 15.536 0 0 1 390.845 63.086 Q 389.404 64.893 387.305 65.991 A 8.286 8.286 0 0 1 387.286 66.001 Q 386.104 66.616 384.66 66.883 A 13.081 13.081 0 0 1 382.276 67.09 A 15.454 15.454 0 0 1 382.158 67.09 Q 381.277 67.083 380.492 66.975 A 9.419 9.419 0 0 1 378.833 66.602 A 10.51 10.51 0 0 1 378.024 66.3 A 8.715 8.715 0 0 1 376.221 65.283 A 8.557 8.557 0 0 1 374.292 63.306 Q 373.486 62.158 372.998 60.889 A 22.731 22.731 0 0 0 374.323 60.451 A 19.431 19.431 0 0 0 379.37 57.739 A 24.454 24.454 0 0 0 379.963 57.279 A 21.54 21.54 0 0 0 384.009 53.052 Q 385.889 50.44 386.841 47.51 A 20.963 20.963 0 0 0 387.258 46.054 Z M 87.5 37.11 L 87.5 62.5 A 7.283 7.283 0 0 0 87.503 62.697 Q 87.512 63.015 87.545 63.543 A 50.9 50.9 0 0 0 87.549 63.599 A 6.445 6.445 0 0 0 87.77 64.893 A 7.31 7.31 0 0 0 87.842 65.137 Q 88.086 65.918 88.623 66.504 A 1.751 1.751 0 0 0 89.556 67.03 A 2.648 2.648 0 0 0 90.137 67.09 A 3.548 3.548 0 0 0 92.683 66.033 A 4.589 4.589 0 0 0 92.7 66.016 A 9.029 9.029 0 0 0 93.93 64.507 A 11.572 11.572 0 0 0 94.605 63.33 A 19.726 19.726 0 0 0 95.737 60.535 A 22.431 22.431 0 0 0 95.947 59.839 A 53.054 53.054 0 0 0 96.516 57.684 A 42.791 42.791 0 0 0 96.826 56.299 Q 97.1 54.887 97.649 54.197 A 2.227 2.227 0 0 1 97.73 54.102 A 2.833 2.833 0 0 1 98.161 53.704 Q 98.468 53.478 98.797 53.391 A 1.638 1.638 0 0 1 99.048 53.345 Q 99.547 53.293 100.047 53.497 A 2.783 2.783 0 0 1 100.464 53.711 A 4.858 4.858 0 0 1 101.554 54.644 A 5.627 5.627 0 0 1 101.734 54.859 A 4.775 4.775 0 0 1 102.564 56.445 A 3.588 3.588 0 0 1 102.697 57.069 Q 102.719 57.252 102.719 57.43 A 2.773 2.773 0 0 1 102.637 58.106 A 45.032 45.032 0 0 1 101.62 61.314 A 54.887 54.887 0 0 1 100.855 63.33 Q 99.756 66.065 98.047 68.36 Q 96.338 70.654 93.945 72.168 A 9.747 9.747 0 0 1 89.913 73.584 A 12.5 12.5 0 0 1 88.33 73.682 A 9.057 9.057 0 0 1 86.383 73.481 A 7.279 7.279 0 0 1 84.766 72.925 A 7.94 7.94 0 0 1 82.129 70.899 Q 81.055 69.629 80.493 67.92 A 11.467 11.467 0 0 1 79.932 64.426 A 12.854 12.854 0 0 1 79.932 64.307 L 79.932 37.598 A 14.721 14.721 0 0 0 79.918 36.939 Q 79.877 36.023 79.712 35.547 A 4.357 4.357 0 0 1 79.558 34.992 Q 79.492 34.669 79.492 34.375 A 1.229 1.229 0 0 1 79.905 33.453 A 2.074 2.074 0 0 1 80.274 33.179 A 3.266 3.266 0 0 1 81.421 32.77 A 4.349 4.349 0 0 1 82.129 32.715 A 7.767 7.767 0 0 1 83.717 32.868 Q 85.114 33.16 86.06 34.009 Q 87.5 35.303 87.5 37.11 Z M 449.854 37.11 L 449.854 62.5 A 7.283 7.283 0 0 0 449.857 62.697 Q 449.865 63.015 449.899 63.543 A 50.9 50.9 0 0 0 449.902 63.599 A 6.445 6.445 0 0 0 450.124 64.893 A 7.31 7.31 0 0 0 450.195 65.137 Q 450.44 65.918 450.977 66.504 A 1.751 1.751 0 0 0 451.91 67.03 A 2.648 2.648 0 0 0 452.49 67.09 A 3.548 3.548 0 0 0 455.037 66.033 A 4.589 4.589 0 0 0 455.054 66.016 A 9.029 9.029 0 0 0 456.284 64.507 A 11.572 11.572 0 0 0 456.958 63.33 A 19.726 19.726 0 0 0 458.09 60.535 A 22.431 22.431 0 0 0 458.301 59.839 A 53.054 53.054 0 0 0 458.87 57.684 A 42.791 42.791 0 0 0 459.18 56.299 Q 459.453 54.887 460.002 54.197 A 2.227 2.227 0 0 1 460.083 54.102 A 2.833 2.833 0 0 1 460.514 53.704 Q 460.821 53.478 461.151 53.391 A 1.638 1.638 0 0 1 461.401 53.345 Q 461.901 53.293 462.4 53.497 A 2.783 2.783 0 0 1 462.818 53.711 A 4.858 4.858 0 0 1 463.908 54.644 A 5.627 5.627 0 0 1 464.087 54.859 A 4.775 4.775 0 0 1 464.917 56.445 A 3.588 3.588 0 0 1 465.051 57.069 Q 465.073 57.252 465.073 57.43 A 2.773 2.773 0 0 1 464.99 58.106 A 45.032 45.032 0 0 1 463.974 61.314 A 54.887 54.887 0 0 1 463.208 63.33 Q 462.109 66.065 460.401 68.36 Q 458.692 70.654 456.299 72.168 A 9.747 9.747 0 0 1 452.267 73.584 A 12.5 12.5 0 0 1 450.684 73.682 A 9.057 9.057 0 0 1 448.736 73.481 A 7.279 7.279 0 0 1 447.119 72.925 A 7.94 7.94 0 0 1 444.483 70.899 Q 443.408 69.629 442.847 67.92 A 11.467 11.467 0 0 1 442.286 64.426 A 12.854 12.854 0 0 1 442.285 64.307 L 442.285 37.598 A 14.721 14.721 0 0 0 442.272 36.939 Q 442.23 36.023 442.066 35.547 A 4.357 4.357 0 0 1 441.912 34.992 Q 441.846 34.669 441.846 34.375 A 1.229 1.229 0 0 1 442.258 33.453 A 2.074 2.074 0 0 1 442.627 33.179 A 3.266 3.266 0 0 1 443.775 32.77 A 4.349 4.349 0 0 1 444.483 32.715 A 7.767 7.767 0 0 1 446.071 32.868 Q 447.468 33.16 448.413 34.009 Q 449.854 35.303 449.854 37.11 Z M 328.32 12.793 L 328.32 41.309 Q 328.858 40.283 329.37 38.55 A 49.734 49.734 0 0 0 329.871 36.725 A 64.51 64.51 0 0 0 330.347 34.717 A 89.075 89.075 0 0 0 331.001 31.458 A 100.281 100.281 0 0 0 331.201 30.322 Q 331.592 28.028 331.885 25.83 A 101.734 101.734 0 0 0 332.203 23.189 A 82.955 82.955 0 0 0 332.349 21.704 A 52.304 52.304 0 0 0 332.453 20.337 Q 332.495 19.666 332.51 19.08 A 25.184 25.184 0 0 0 332.52 18.408 A 55.017 55.017 0 0 0 332.474 16.084 Q 332.375 13.755 332.063 12.201 A 10.543 10.543 0 0 0 331.787 11.109 A 7.779 7.779 0 0 0 331.47 10.262 Q 330.807 8.789 329.834 8.789 Q 329.443 8.789 329.151 9.18 A 2.714 2.714 0 0 0 328.898 9.592 Q 328.793 9.802 328.706 10.051 A 4.905 4.905 0 0 0 328.662 10.181 A 6.235 6.235 0 0 0 328.445 11.109 A 7.336 7.336 0 0 0 328.394 11.499 A 14.629 14.629 0 0 0 328.339 12.177 A 10.927 10.927 0 0 0 328.32 12.793 Z M 350.342 12.793 L 350.342 41.309 Q 350.879 40.283 351.392 38.55 A 49.734 49.734 0 0 0 351.892 36.725 A 64.51 64.51 0 0 0 352.368 34.717 A 89.075 89.075 0 0 0 353.023 31.458 A 100.281 100.281 0 0 0 353.223 30.322 Q 353.613 28.028 353.906 25.83 A 101.734 101.734 0 0 0 354.225 23.189 A 82.955 82.955 0 0 0 354.37 21.704 A 52.304 52.304 0 0 0 354.474 20.337 Q 354.516 19.666 354.532 19.08 A 25.184 25.184 0 0 0 354.541 18.408 A 55.017 55.017 0 0 0 354.495 16.084 Q 354.397 13.755 354.084 12.201 A 10.543 10.543 0 0 0 353.809 11.109 A 7.779 7.779 0 0 0 353.491 10.262 Q 352.828 8.789 351.856 8.789 Q 351.465 8.789 351.172 9.18 A 2.714 2.714 0 0 0 350.92 9.592 Q 350.815 9.802 350.727 10.051 A 4.905 4.905 0 0 0 350.684 10.181 A 6.235 6.235 0 0 0 350.466 11.109 A 7.336 7.336 0 0 0 350.415 11.499 A 14.629 14.629 0 0 0 350.36 12.177 A 10.927 10.927 0 0 0 350.342 12.793 Z M 223.535 40.576 L 243.701 40.576 A 1.89 1.89 0 0 0 243.997 40.555 Q 244.318 40.504 244.507 40.332 Q 244.678 40.177 244.839 40.12 A 0.544 0.544 0 0 1 245.02 40.088 A 0.692 0.692 0 0 1 245.608 40.388 Q 245.689 40.499 245.75 40.651 A 1.666 1.666 0 0 1 245.776 40.723 A 3.855 3.855 0 0 1 245.948 41.452 A 5.327 5.327 0 0 1 245.996 42.188 A 6.944 6.944 0 0 1 245.965 42.818 Q 245.934 43.161 245.871 43.55 A 14.562 14.562 0 0 1 245.776 44.068 A 11.204 11.204 0 0 1 245.142 46.167 A 8.195 8.195 0 0 1 244.69 47.095 A 6.223 6.223 0 0 1 244.165 47.876 Q 243.604 48.584 242.92 48.584 L 222.315 48.584 A 1.151 1.151 0 0 1 221.434 48.178 Q 221.286 48.016 221.161 47.789 A 2.67 2.67 0 0 1 221.143 47.754 A 3.713 3.713 0 0 1 220.768 46.618 A 4.974 4.974 0 0 1 220.703 45.801 A 6.703 6.703 0 0 1 220.735 45.173 Q 220.777 44.729 220.874 44.214 A 7.468 7.468 0 0 1 221.411 42.505 A 5.787 5.787 0 0 1 221.856 41.697 A 4.604 4.604 0 0 1 222.29 41.138 A 1.746 1.746 0 0 1 222.829 40.73 A 1.622 1.622 0 0 1 223.535 40.576 Z M 371.68 53.613 A 7.953 7.953 0 0 0 371.729 54.492 A 8.082 8.082 0 0 1 371.774 55.164 A 9.384 9.384 0 0 1 371.777 55.42 A 13.833 13.833 0 0 0 375.147 53.174 Q 376.66 51.807 377.734 50.049 Q 378.809 48.291 379.395 46.216 A 15.827 15.827 0 0 0 379.981 41.895 A 7.959 7.959 0 0 0 379.926 40.929 Q 379.865 40.437 379.739 40.031 A 3.286 3.286 0 0 0 379.419 39.307 A 2.21 2.21 0 0 0 379.006 38.798 A 1.63 1.63 0 0 0 377.881 38.379 Q 376.66 38.379 375.708 39.209 A 6.63 6.63 0 0 0 374.689 40.34 A 8.824 8.824 0 0 0 374.048 41.382 A 13.888 13.888 0 0 0 373.258 43.194 A 17.208 17.208 0 0 0 372.876 44.409 A 35.14 35.14 0 0 0 372.119 47.803 Q 371.826 49.512 371.729 51.05 Q 371.643 52.396 371.67 53.349 A 13.521 13.521 0 0 0 371.68 53.613 Z M 82.886 22.315 A 5.648 5.648 0 0 0 85.205 22.803 A 6.953 6.953 0 0 0 85.491 22.797 A 5.973 5.973 0 0 0 87.647 22.315 A 6.773 6.773 0 0 0 87.716 22.284 A 5.953 5.953 0 0 0 89.575 20.996 A 6.208 6.208 0 0 0 90.845 19.068 A 5.744 5.744 0 0 0 91.002 18.65 A 6.127 6.127 0 0 0 91.309 16.699 A 7.246 7.246 0 0 0 91.297 16.292 A 6.202 6.202 0 0 0 90.845 14.258 Q 90.381 13.135 89.575 12.329 A 5.561 5.561 0 0 0 89.255 12.033 A 5.956 5.956 0 0 0 87.647 11.06 A 5.913 5.913 0 0 0 86.963 10.825 A 6.574 6.574 0 0 0 85.205 10.596 Q 83.984 10.596 82.886 11.06 Q 81.787 11.524 80.982 12.329 A 5.806 5.806 0 0 0 80.621 12.724 A 6.335 6.335 0 0 0 79.688 14.258 A 5.709 5.709 0 0 0 79.463 14.868 A 6.24 6.24 0 0 0 79.199 16.699 Q 79.199 17.969 79.688 19.068 Q 80.176 20.166 80.982 20.996 A 6.045 6.045 0 0 0 82.886 22.315 Z M 445.239 22.315 A 5.648 5.648 0 0 0 447.559 22.803 A 6.953 6.953 0 0 0 447.845 22.797 A 5.973 5.973 0 0 0 450 22.315 A 6.773 6.773 0 0 0 450.07 22.284 A 5.953 5.953 0 0 0 451.929 20.996 A 6.208 6.208 0 0 0 453.198 19.068 A 5.744 5.744 0 0 0 453.356 18.65 A 6.127 6.127 0 0 0 453.662 16.699 A 7.246 7.246 0 0 0 453.651 16.292 A 6.202 6.202 0 0 0 453.198 14.258 Q 452.734 13.135 451.929 12.329 A 5.561 5.561 0 0 0 451.609 12.033 A 5.956 5.956 0 0 0 450 11.06 A 5.913 5.913 0 0 0 449.316 10.825 A 6.574 6.574 0 0 0 447.559 10.596 Q 446.338 10.596 445.239 11.06 Q 444.141 11.524 443.335 12.329 A 5.806 5.806 0 0 0 442.975 12.724 A 6.335 6.335 0 0 0 442.041 14.258 A 5.709 5.709 0 0 0 441.816 14.868 A 6.24 6.24 0 0 0 441.553 16.699 Q 441.553 17.969 442.041 19.068 Q 442.529 20.166 443.335 20.996 A 6.045 6.045 0 0 0 445.239 22.315 Z M 301.611 45.117 A 19.384 19.384 0 0 0 302.661 51.514 A 20.389 20.389 0 0 0 304.14 54.833 A 16.892 16.892 0 0 0 305.42 56.787 A 39.133 39.133 0 0 0 305.695 53.308 A 34.084 34.084 0 0 0 305.713 52.197 A 157.636 157.636 0 0 0 305.695 49.75 A 124.933 124.933 0 0 0 305.64 47.486 A 37.32 37.32 0 0 0 305.557 45.942 Q 305.5 45.182 305.413 44.516 A 19.23 19.23 0 0 0 305.298 43.75 A 13.706 13.706 0 0 0 305.111 42.838 Q 304.998 42.372 304.861 41.983 A 5.577 5.577 0 0 0 304.566 41.284 Q 304.102 40.381 303.32 40.381 A 1.178 1.178 0 0 0 302.296 41.02 Q 301.699 41.98 301.623 44.384 A 23.2 23.2 0 0 0 301.611 45.117 Z M 477.051 45.117 A 19.384 19.384 0 0 0 478.101 51.514 A 20.389 20.389 0 0 0 479.58 54.833 A 16.892 16.892 0 0 0 480.859 56.787 A 39.133 39.133 0 0 0 481.134 53.308 A 34.084 34.084 0 0 0 481.152 52.197 A 157.636 157.636 0 0 0 481.134 49.75 A 124.933 124.933 0 0 0 481.079 47.486 A 37.32 37.32 0 0 0 480.997 45.942 Q 480.94 45.182 480.853 44.516 A 19.23 19.23 0 0 0 480.737 43.75 A 13.706 13.706 0 0 0 480.551 42.838 Q 480.437 42.372 480.301 41.983 A 5.577 5.577 0 0 0 480.005 41.284 Q 479.541 40.381 478.76 40.381 A 1.178 1.178 0 0 0 477.735 41.02 Q 477.138 41.98 477.062 44.384 A 23.2 23.2 0 0 0 477.051 45.117 Z" vector-effect="non-scaling-stroke"/></g></svg>